<?xml version="1.0" standalone="no"?>
<!DOCTYPE svg PUBLIC "-//W3C//DTD SVG 1.1//EN" "http://www.w3.org/Graphics/SVG/1.1/DTD/svg11.dtd" >
<svg xmlns="http://www.w3.org/2000/svg">
<metadata></metadata>
<defs>
<font id="larish_altesemibold" horiz-adv-x="1478" >
<font-face units-per-em="2048" ascent="1556" descent="-492" />
<missing-glyph horiz-adv-x="522" />
<glyph unicode="&#xfb01;" horiz-adv-x="1275" d="M39 68q-3 27 24 30q81 12 113.5 48t32.5 118v318q0 96 -32 150.5t-93 82.5q-27 13 -27 35v57q0 11 8.5 19t20.5 8h123q3 127 41 239.5t104.5 198t166.5 135t220 49.5q135 0 225.5 -55.5t90.5 -138.5t-84 -119l-185 -76q-9 -5 -19.5 1t-10.5 16v39q0 25 14 49 q34 57 8.5 110.5t-92.5 53.5q-108 0 -175 -79.5t-67 -213.5v-209h170q246 0 394 61q35 15 45 15q8 0 14 -5t6 -12v-729q0 -82 32 -118t112 -48q27 -3 24 -30l-4 -43q-4 -25 -29 -25h-501q-25 0 -29 25l-4 43q-3 24 24 30q71 12 102.5 51t31.5 115v406q0 58 -37.5 96 t-98.5 39l-241 6v-547q0 -76 29 -115t100 -51q27 -6 24 -30l-4 -43q-4 -25 -28 -25h-506q-25 0 -29 25z" />
<glyph unicode="&#xfb02;" horiz-adv-x="1275" d="M39 68q-3 27 24 30q81 12 113.5 48t32.5 118v318q0 96 -32 150.5t-93 82.5q-27 13 -27 35v57q0 11 8.5 19t20.5 8h123q0 90 21 179.5t63 169t100 140.5t137 97t168 36q61 0 114.5 -23.5t88.5 -62.5q30 24 76 70q16 16 39 16h35q24 -3 24 -26v-1266q0 -82 32 -118t112 -48 q27 -3 24 -30l-4 -43q-4 -25 -29 -25h-501q-25 0 -29 25l-4 43q-3 24 24 30q72 12 103 48.5t31 117.5v897q0 39 -13 62l-123 -56q-9 -5 -19.5 1t-10.5 16v39q0 7 3.5 15t11.5 20t9 14q33 57 8 108.5t-90 51.5q-73 0 -119.5 -65t-46.5 -187v-246h261q12 0 20 -7.5t8 -19.5 v-76q0 -12 -8 -19t-20 -7h-244v-541q0 -82 27.5 -118t97.5 -48q27 -6 24 -30l-4 -43q-4 -25 -28 -25h-506q-25 0 -29 25z" />
<glyph unicode="&#xfb03;" horiz-adv-x="1910" d="M39 68q-3 27 24 30q81 12 113.5 48t32.5 118v318q0 96 -32 150.5t-93 82.5q-27 13 -27 35v57q0 11 8.5 19t20.5 8h123q3 127 41 239.5t104.5 198t166.5 135t220 49.5q106 0 187 -36t112 -95q137 131 336 131q135 0 225.5 -55.5t90.5 -138.5t-84 -119l-185 -76 q-9 -5 -19.5 1t-10.5 16v39q0 25 14 49q34 57 8.5 110.5t-92.5 53.5q-108 0 -175 -79.5t-67 -213.5v-209h170q246 0 394 61q35 15 45 15q8 0 14 -5t6 -12v-729q0 -82 31.5 -118t111.5 -48q28 -3 25 -30l-4 -43q-4 -25 -29 -25h-502q-24 0 -28 25l-4 43q-3 24 24 30 q71 12 102 51t31 115v406q0 58 -37 96t-98 39l-241 6v-547q0 -76 29 -115t100 -51q27 -6 24 -30l-4 -43q-4 -25 -29 -25h-505q-25 0 -29 25l-4 43q-3 27 24 30q81 12 113.5 48t32.5 118v318q0 101 -44.5 163t-115.5 62h-223v-543q0 -82 27.5 -118t97.5 -48q27 -6 24 -30 l-4 -43q-4 -25 -28 -25h-506q-25 0 -29 25zM444 934h400q3 151 53 278l-109 -45q-9 -5 -19.5 1t-10.5 16v39q0 25 14 49q34 57 8.5 110.5t-92.5 53.5q-108 0 -175.5 -79.5t-68.5 -213.5v-209z" />
<glyph unicode="&#xfb04;" horiz-adv-x="1908" d="M39 68q-3 27 24 30q81 12 113.5 48t32.5 118v318q0 96 -32 150.5t-93 82.5q-27 13 -27 35v57q0 11 8.5 19t20.5 8h123q3 127 41 239.5t104.5 198t166.5 135t220 49.5q101 0 181 -33.5t114 -88.5q125 122 295 122q61 0 114.5 -23.5t88.5 -62.5q30 24 76 70q16 16 39 16h34 q25 -3 25 -26v-1266q0 -82 31.5 -118t111.5 -48q28 -3 25 -30l-4 -43q-4 -25 -29 -25h-502q-24 0 -28 25l-4 43q-3 24 24 30q71 12 102 48.5t31 117.5v897q0 41 -12 62l-123 -56q-9 -5 -20 1t-11 16v39q0 7 4 15.5t11.5 19.5t9.5 14q33 57 8 108.5t-90 51.5 q-73 0 -119.5 -65t-46.5 -187v-246h260q12 0 20.5 -7.5t8.5 -19.5v-76q0 -12 -8.5 -19t-20.5 -7h-243v-541q0 -82 27.5 -118t97.5 -48q27 -6 24 -30l-4 -43q-4 -25 -29 -25h-505q-25 0 -29 25l-4 43q-3 27 24 30q81 12 113.5 48t32.5 118v320q0 101 -44.5 162t-115.5 61 h-221v-543q0 -82 27.5 -118t97.5 -48q27 -6 24 -30l-4 -43q-4 -25 -28 -25h-506q-25 0 -29 25zM444 934h398q0 148 51 276l-105 -43q-9 -5 -19.5 1t-10.5 16v39q0 25 14 49q34 57 8.5 110.5t-92.5 53.5q-108 0 -175.5 -79.5t-68.5 -213.5v-209z" />
<glyph horiz-adv-x="0" />
<glyph horiz-adv-x="682" />
<glyph unicode="&#xd;" horiz-adv-x="450" />
<glyph unicode=" "  horiz-adv-x="522" />
<glyph unicode="&#x09;" horiz-adv-x="522" />
<glyph unicode="&#xa0;" horiz-adv-x="522" />
<glyph unicode="!" horiz-adv-x="667" d="M155 158q-1 25 19 47q47 54 113 112q22 20 47 19t45 -21q68 -64 113 -112q20 -20 21 -45t-19 -45q-49 -59 -115 -113q-20 -20 -45 -20t-47 20q-78 72 -111 113q-20 20 -21 45zM160 1292q-13 60 24 97q25 25 101 88q50 40 96 0q70 -58 100 -88q38 -38 25 -97 q-52 -258 -77 -412t-58 -409q-1 -13 -10 -21t-21 -8h-16q-26 0 -29 29q-36 271 -60.5 422.5t-74.5 398.5z" />
<glyph unicode="&#x22;" horiz-adv-x="962" d="M123 1325q0 66 45.5 109t114.5 43t113 -43t44 -109q0 -5 -49 -250q-11 -57 -23 -135.5t-23.5 -160t-14.5 -101.5q-4 -25 -27 -25h-41q-23 0 -26 25q-25 197 -64 397q-49 245 -49 250zM522 1325q0 66 44.5 109t113.5 43t114.5 -43t45.5 -109q0 -5 -49 -250 q-14 -73 -64 -397q-4 -25 -27 -25h-41q-23 0 -26 25q-29 228 -62 397q-49 245 -49 250z" />
<glyph unicode="#" horiz-adv-x="1325" d="M143 440v97q0 26 29 26h166v371h-166q-29 0 -29 27v96q0 12 8 19t19 7h168v365q0 12 7.5 20.5t19.5 8.5h96q10 0 18 -8t8 -19v-367h351v365q0 12 7 20.5t19 8.5h97q10 0 18 -8t8 -19v-367h166q12 0 20.5 -7t8.5 -19v-96q0 -10 -9 -18.5t-20 -8.5h-166v-371h168 q11 0 19 -8t8 -18v-97q0 -12 -8.5 -19t-20.5 -7h-166v-385q0 -29 -26 -29h-97q-12 0 -19 7t-7 18v389h-351v-385q0 -29 -26 -29h-96q-12 0 -19.5 7t-7.5 18v389h-170q-11 0 -18 7t-7 19zM485 561h355v375h-355v-375z" />
<glyph unicode="$" horiz-adv-x="1351" d="M211 436q0 12 8.5 20.5t20.5 8.5h47q26 0 37 -25q59 -132 121 -209t161 -104v530q-86 64 -170 131q-114 89 -169.5 171t-55.5 188q0 149 109.5 242t281.5 104v143q0 10 8 18.5t19 8.5h110q12 0 19.5 -8.5t7.5 -20.5v-147q30 -5 97 -21t102 -16q25 0 50.5 13.5t41.5 13.5 h43q22 0 22 -23l4 -319q0 -12 -8 -20.5t-20 -8.5h-45q-23 0 -37 24q-53 90 -83 126q-73 86 -175 114v-493q37 -28 176 -121q132 -88 196 -178t64 -209q0 -160 -118.5 -258t-309.5 -109v-397q0 -11 -7.5 -18t-19.5 -7h-110q-27 0 -27 29v393q-26 1 -48.5 2t-38.5 1.5t-42 0.5 l-235 -6q-23 0 -23 23zM438 1208q0 -50 36.5 -95t98.5 -95q4 -4 10 -9t13.5 -11t11.5 -9v391q-77 -11 -123.5 -58t-46.5 -114zM762 119q84 12 134 62.5t50 121.5q0 75 -38.5 123.5t-123.5 105.5l-22 15v-428z" />
<glyph unicode="%" horiz-adv-x="1648" d="M72 1161q0 153 93.5 247.5t244.5 94.5q141 0 238 -99t104 -255q7 -157 -90.5 -255.5t-249.5 -98.5q-147 0 -243.5 104.5t-96.5 261.5zM155 12q-5 12 3 21l1177 1417q20 27 49 27h99q12 0 17 -12t-3 -21l-1178 -1417q-18 -27 -49 -27h-98q-12 0 -17 12zM231.5 1265.5 q-15.5 -83.5 26.5 -182.5q42 -100 107.5 -143.5t138.5 -15.5q67 27 81.5 110.5t-26.5 184.5q-41 100 -109 143.5t-135 15.5q-68 -29 -83.5 -112.5zM889 328q0 154 100 257t242 103q151 0 245.5 -93.5t94.5 -246.5q0 -157 -96.5 -262.5t-243.5 -105.5q-151 0 -246.5 95 t-95.5 253zM1055.5 220q16.5 -83 83.5 -111q73 -28 138 15t107 144q42 99 26.5 182.5t-83.5 112.5q-67 28 -137 -15.5t-109 -144.5q-42 -100 -25.5 -183z" />
<glyph unicode="&#x26;" horiz-adv-x="1941" d="M176 369q0 324 399 510q-102 66 -151 139t-49 168q0 118 98 210.5t227 92.5q141 0 227.5 -70.5t86.5 -197.5q0 -73 -52 -152.5t-133 -134.5q226 -82 332 -223q23 53 34 81.5t22.5 75.5t15.5 95q8 120 -96 155q-24 9 -21 33l4 41q4 25 29 25h487q25 0 29 -25l4 -41 q3 -24 -20 -33q-88 -28 -143.5 -69t-92.5 -107q-16 -29 -174 -332q30 -45 70 -109.5t62.5 -100t54 -78t55.5 -64t54.5 -36.5t63.5 -15q46 0 78 19.5t74 66.5q24 24 51 4l43 -33q23 -16 8 -49q-47 -100 -138 -167.5t-210 -67.5q-142 0 -239 81.5t-181 260.5 q-178 -342 -512 -342q-167 0 -282 111t-115 278zM414 436q9 -100 86.5 -164.5t191.5 -60.5q91 3 179 60.5t157 172.5q-51 136 -127.5 215.5t-220.5 155.5q-289 -141 -266 -379zM516 1192q0 -56 64 -115.5t145 -95.5q76 85 76 188q0 63 -45 103.5t-109 40.5q-59 0 -95 -35 t-36 -86z" />
<glyph unicode="'" horiz-adv-x="565" d="M123 1325q0 66 45.5 109t114.5 43t114 -43t45 -109q0 -5 -49 -250q-9 -48 -63 -397q-4 -25 -27 -25h-41q-23 0 -26 25q-25 197 -64 397q-49 245 -49 250z" />
<glyph unicode="(" horiz-adv-x="778" d="M201 496q0 154 32 297t81 248t113 196t120.5 147t111.5 95q18 13 31 0l41 -45q13 -16 -2 -31q-149 -160 -231 -391t-82 -516t82 -516.5t231 -391.5q14 -14 2 -30l-41 -45q-13 -13 -31 0q-55 39 -111.5 95t-120.5 147t-113 196t-81 248t-32 297z" />
<glyph unicode=")" horiz-adv-x="778" d="M47 -442q-12 16 2 30q149 160 231 391.5t82 516.5t-82 516t-231 391q-15 15 -2 31l41 45q13 13 31 0q55 -39 112 -95t121 -147t112.5 -196t81 -248t32.5 -297t-32.5 -297t-81 -248t-112.5 -196t-121 -147t-112 -95q-18 -13 -31 0z" />
<glyph unicode="*" horiz-adv-x="933" d="M61 948v203q0 33 23 48.5t51 4.5q11 -5 58.5 -29.5t102 -45.5t120.5 -35q-10 53 -26 106.5t-26.5 81.5t-29.5 72t-21 49q-11 28 5 51t49 23h202q33 0 49 -23t5 -51q-2 -5 -21 -49t-29.5 -72t-26.5 -81.5t-26 -106.5q65 14 119 35t101.5 45.5t58.5 29.5q28 11 50.5 -4.5 t22.5 -48.5v-203q0 -33 -22.5 -48.5t-50.5 -4.5q-16 6 -59.5 29t-99.5 45.5t-120 36.5q8 -43 19 -83.5t24 -76.5t21.5 -58t22.5 -53t16 -37q11 -28 -5 -50.5t-49 -22.5h-202q-33 0 -49 22.5t-5 50.5q2 6 16 37t22.5 53t21.5 58t24 76.5t19 83.5q-66 -14 -120.5 -35 t-101.5 -46t-59 -30q-28 -11 -51 4.5t-23 48.5z" />
<glyph unicode="+" d="M123 637v86q0 12 8.5 19.5t20.5 7.5h518v518q0 12 7 20t19 8h86q12 0 19.5 -8t7.5 -20v-518h518q12 0 20.5 -7.5t8.5 -19.5v-86q0 -12 -8.5 -19.5t-20.5 -7.5h-518v-518q0 -12 -7.5 -20.5t-19.5 -8.5h-86q-12 0 -19 8.5t-7 20.5v518h-518q-12 0 -20.5 7.5t-8.5 19.5z" />
<glyph unicode="," horiz-adv-x="675" d="M143 -285q48 54 71 83.5t41.5 72t18.5 86.5q0 52 -27.5 94.5t-74.5 85.5q-23 22 -23.5 50t21.5 51q92 103 123 131q23 20 50.5 20t49.5 -22q17 -16 39.5 -40t49 -52.5t38.5 -41.5q36 -39 15 -92q-59 -154 -127 -271t-177 -239q-9 -10 -24.5 -9.5t-24.5 9.5l-39 37 q-22 22 0 47z" />
<glyph unicode="-" horiz-adv-x="778" d="M106 385l58 152q13 38 61 38h412q21 0 31.5 -13.5t3.5 -33.5l-58 -151q-14 -39 -61 -39h-412q-21 0 -31.5 13.5t-3.5 33.5z" />
<glyph unicode="." horiz-adv-x="675" d="M141 174q-1 28 21 51q57 64 125 125q23 22 50.5 21t49.5 -23q66 -63 125 -125q22 -22 23 -49.5t-21 -50.5q-52 -58 -125 -123q-23 -22 -51 -22t-51 22q-84 79 -123 123q-22 23 -23 51z" />
<glyph unicode="/" horiz-adv-x="1011" d="M106 -346l658 1804q3 11 13.5 16t19.5 1l94 -33q24 -10 14 -37l-657 -1806q-11 -25 -33 -15l-94 33q-25 9 -15 37z" />
<glyph unicode="0" horiz-adv-x="1249" d="M82 737q0 214 67.5 392t193 283.5t282.5 105.5t282 -105.5t192.5 -283.5t67.5 -392t-67.5 -391.5t-192.5 -282t-282 -104.5t-282 104.5t-193 282t-68 391.5zM249 856.5q1 -104.5 30 -213.5q62 -224 197.5 -351t289.5 -87q77 22 131.5 81.5t80 143.5t25 188t-29.5 213 q-62 225 -198 353t-290 88q-77 -22 -131 -82t-80 -144.5t-25 -189z" />
<glyph unicode="1" horiz-adv-x="890" d="M104 1247q-6 22 17 35q147 77 282 180q21 15 43 15h117q25 -3 25 -27l-2 -1186q0 -78 44.5 -115.5t131.5 -50.5q27 -3 24 -30l-4 -43q-4 -25 -28 -25h-586q-25 0 -29 25l-4 43q-3 27 25 30q87 13 132.5 50.5t45.5 115.5l-2 846q0 46 -27 67.5t-73 16.5l-89 -8 q-28 -3 -34 22z" />
<glyph unicode="2" horiz-adv-x="1140" d="M41 25v53q0 21 12 45q76 141 199 282t336 347q158 152 153 301q-3 97 -70 161.5t-163 67.5q-62 2 -113.5 -14t-93.5 -51t-70 -67.5t-63 -82.5q-9 -13 -24 -16t-27 6l-47 35q-25 22 -11 47q41 74 96 140t123.5 120.5t152 86.5t169.5 32q189 0 313.5 -111t124.5 -293 q0 -107 -45 -200t-116.5 -163.5t-180.5 -142.5q-292 -196 -401 -336h391q77 0 123 23t117 84q21 18 41 18h57q25 0 25 -24v-43q0 -22 -11 -39l-186 -271q-14 -20 -39 -20h-747q-25 0 -25 25z" />
<glyph unicode="3" horiz-adv-x="1169" d="M37 246q0 73 61 98l262 131q12 4 22.5 -1.5t10.5 -16.5v-37q0 -24 -8 -43q-12 -28 -18.5 -60.5t-3.5 -69.5t17.5 -66t51 -48.5t90.5 -19.5q120 0 194.5 73t74.5 189q0 88 -35.5 162.5t-92.5 122.5t-127.5 74t-142.5 24q-13 0 -23 7.5t-10 18.5v82q0 26 29 29l53 10 q106 20 181 83.5t75 154.5q0 78 -51 128t-127 50q-123 0 -254 -150q-10 -13 -24.5 -14.5t-24.5 6.5l-47 41q-11 8 -14.5 21.5t6.5 27.5q205 267 473 267q142 0 235 -79t93 -214q0 -104 -85 -192.5t-202 -127.5q50 -4 103.5 -23t105 -54.5t92 -82t65.5 -111t25 -136.5 q0 -152 -77 -275t-211 -191.5t-298 -68.5q-90 0 -166 18.5t-126 48.5t-85.5 67.5t-51 74.5t-15.5 72z" />
<glyph unicode="4" horiz-adv-x="1198" d="M45 463q-6 27 6 49l631 946q14 19 43 19h145q25 -3 25 -27v-948h172q12 0 20.5 -7.5t8.5 -19.5v-110q0 -12 -8.5 -19.5t-20.5 -7.5h-172v-74q0 -79 44 -116t130 -50q28 -3 25 -30l-4 -43q-4 -25 -29 -25h-586q-25 0 -29 25l-4 43q-3 27 25 30q87 13 131.5 50.5 t44.5 115.5v74h-537q-27 0 -34 27zM217 502h428v651z" />
<glyph unicode="5" horiz-adv-x="1140" d="M49 240q-6 38 6.5 70.5t42.5 49.5l221 113q11 6 23 0.5t12 -18.5v-47q0 -29 -8 -48q-20 -42 -17.5 -85.5t19.5 -79.5t58 -59t98 -23q130 0 214.5 99.5t84.5 248.5q0 152 -91 248t-223 96q-104 0 -204 -49q-25 -12 -45 8l-35 31q-17 20 -17 47l23 608q0 11 7.5 19t19.5 8 h59q32 0 119 -19.5t137 -19.5q162 0 301 71q31 18 47 -4l29 -37q14 -21 0 -43q-31 -45 -67 -81t-68.5 -60.5t-71.5 -41.5t-69 -26.5t-69.5 -13t-63.5 -4t-60 3.5t-50.5 7t-44.5 9.5t-32 6.5l-10 -219q44 21 107.5 35t115.5 14q227 0 367.5 -132t140.5 -374 q0 -106 -45 -210.5t-121.5 -187t-188.5 -133.5t-237 -51q-78 0 -145.5 18t-113.5 46.5t-80.5 65.5t-52 73t-22.5 70z" />
<glyph unicode="6" horiz-adv-x="1263" d="M82 739q0 146 42.5 284.5t119.5 249t195.5 178t258.5 67.5q129 0 226 -53.5t137 -155.5q13 -34 -1 -62t-46 -37l-228 -75q-12 -4 -22 1.5t-10 16.5v37q0 24 8 43q32 74 -2 118t-103 44q-76 0 -138 -44.5t-99.5 -116t-57.5 -155t-20 -168.5q151 141 360 138 q135 -2 248.5 -81t177.5 -208t64 -275q0 -240 -138.5 -383t-359.5 -143q-171 0 -309.5 94t-220.5 273t-82 413zM375 629q0 -125 50 -242t132 -188.5t170 -71.5q103 0 162 69.5t59 172.5q0 131 -53 249t-136.5 187t-170.5 69q-102 0 -157.5 -73t-55.5 -172z" />
<glyph unicode="7" horiz-adv-x="1024" d="M72 1126v363q0 16 16 20.5t29 -2.5q64 -30 184 -30h664q12 0 20 -8t8 -19v-109q0 -27 -12 -49q-12 -23 -69 -120.5t-105.5 -183t-112 -218t-106 -248.5t-69 -249.5t-19.5 -243.5q1 -12 -7 -20.5t-20 -8.5h-252q-12 0 -20.5 8.5t-5.5 20.5q45 189 110.5 357t137.5 291 t136.5 217t131 184.5t96.5 144.5l-401 -4q-151 0 -232 -140q-14 -25 -43 -12l-41 20q-18 9 -18 39z" />
<glyph unicode="8" horiz-adv-x="1232" d="M63 395q0 67 22 128t55.5 106t79 84t86.5 63.5t83 42.5q-227 148 -227 340q0 83 38.5 152.5t100.5 113.5t137 68.5t152 24.5q169 0 285 -88.5t116 -231.5q0 -97 -61 -175.5t-139 -111.5q188 -102 275 -205.5t87 -263.5q0 -140 -79 -250.5t-207.5 -168.5t-278.5 -58 q-147 0 -266 52t-189 151t-70 227zM254 399q0 -126 99 -208t239 -82q129 0 212 65.5t83 175.5q0 54 -20 102.5t-48 82.5t-73 68t-80 54.5t-86 48t-74 42.5q-252 -131 -252 -349zM408 1247q0 -32 12.5 -61t30 -50t52.5 -46.5t64 -43t81 -47.5l42 -24q60 39 96.5 91t36.5 110 q0 103 -68.5 161t-168.5 58q-74 0 -126 -42t-52 -106z" />
<glyph unicode="9" horiz-adv-x="1259" d="M72 983q0 242 136.5 388.5t356.5 146.5q128 0 240 -55.5t194.5 -155t130.5 -247t48 -323.5q0 -146 -42 -284t-118.5 -249t-195.5 -178t-261 -67q-129 0 -225.5 53.5t-136.5 155.5q-13 34 1 61.5t46 36.5l227 76q12 4 22.5 -1.5t10.5 -16.5v-37q0 -24 -8 -43 q-28 -73 2 -113.5t96 -40.5q61 0 114 29t90.5 77t64.5 110t40 129t13 134q-163 -135 -365 -135q-138 0 -249 75.5t-171.5 201t-60.5 272.5zM305 1130q0 -131 53.5 -248t137 -185t170.5 -68q102 0 157.5 73t55.5 172q0 123 -52.5 240t-134.5 187.5t-166 70.5q-103 0 -162 -70 t-59 -172z" />
<glyph unicode=":" horiz-adv-x="675" d="M141 174q-1 28 21 51q57 64 125 125q23 22 50.5 21t49.5 -23q66 -63 125 -125q22 -22 23 -49.5t-21 -50.5q-52 -58 -125 -123q-23 -22 -51 -22t-51 22q-84 79 -123 123q-22 23 -23 51zM141 760q-1 28 21 51q57 64 125 125q23 22 50.5 21t49.5 -23q66 -63 125 -125 q22 -22 23 -49.5t-21 -50.5q-52 -58 -125 -123q-23 -22 -51 -22t-51 22q-84 79 -123 123q-22 23 -23 51z" />
<glyph unicode=";" horiz-adv-x="675" d="M143 -285q-22 -25 0 -47l39 -37q9 -9 24.5 -9.5t24.5 9.5q109 122 177 239t127 271q21 53 -15 92q-12 13 -38.5 41.5t-49 52.5t-39.5 40q-22 22 -49.5 22t-50.5 -20q-31 -28 -123 -131q-22 -23 -21.5 -51t23.5 -50q47 -43 74.5 -85.5t27.5 -94.5q0 -63 -30 -112.5 t-101 -129.5zM149 760q-1 28 21 51q57 64 125 125q23 22 50.5 21t49.5 -23q66 -63 125 -125q22 -22 23 -49.5t-21 -50.5q-52 -58 -125 -123q-23 -22 -51 -22t-51 22q-84 79 -123 123q-22 23 -23 51z" />
<glyph unicode="&#x3c;" d="M270 633v96q0 29 21 41l811 469q24 14 37 -8l43 -74q6 -12 3 -23.5t-14 -17.5l-757 -430l757 -440q11 -6 14 -17.5t-3 -23.5l-43 -74q-13 -22 -37 -8l-811 469q-21 12 -21 41z" />
<glyph unicode="=" d="M123 498v86q0 12 8.5 19t20.5 7h1175q12 0 20.5 -7t8.5 -19v-86q0 -12 -8.5 -19.5t-20.5 -7.5h-1175q-12 0 -20.5 7.5t-8.5 19.5zM123 776v86q0 12 8.5 19.5t20.5 7.5h1175q12 0 20.5 -7.5t8.5 -19.5v-86q0 -12 -8.5 -19t-20.5 -7h-1175q-12 0 -20.5 7t-8.5 19z" />
<glyph unicode="&#x3e;" d="M279 205q-14 27 10 41l758 440l-758 430q-24 14 -10 41l43 74q12 22 36 8l811 -469q21 -12 21 -41v-96q0 -29 -21 -41l-811 -469q-24 -14 -36 8z" />
<glyph unicode="?" horiz-adv-x="862" d="M74 1200q-3 124 96.5 213.5t267.5 89.5q154 0 253.5 -92t99.5 -242q0 -64 -22.5 -121.5t-59 -100.5t-80 -81.5t-87 -71.5t-80 -63t-59 -62.5t-22.5 -64.5q0 -36 19 -58t55 -22q39 0 57.5 27.5t15.5 75.5q-1 12 6 20t19 8h61q12 0 20.5 -8t10.5 -20q7 -100 -47 -158.5 t-152 -58.5q-89 0 -144.5 54.5t-55.5 141.5q0 59 22.5 111.5t56 89.5t73 78.5t73 78t56 87.5t22.5 108q0 84 -50.5 134t-129.5 50t-129 -47t-60 -116q-2 -12 -12 -19t-25 -4l-45 8q-24 6 -24 35zM257 158.5q-1 24.5 19 46.5q47 54 113 112q22 20 47 19t45 -21 q68 -64 113 -112q20 -20 21 -45t-19 -45q-49 -59 -115 -113q-20 -20 -45 -20t-47 20q-74 69 -110 113q-21 21 -22 45.5z" />
<glyph unicode="@" horiz-adv-x="1925" d="M147 578q0 175 66 330.5t177.5 265.5t264.5 174.5t322 64.5q166 0 315 -60t256.5 -163.5t170.5 -248.5t63 -308q0 -114 -37 -216t-97.5 -171.5t-138 -109.5t-157.5 -40q-79 0 -110.5 67t-18.5 163q-45 -109 -134 -171.5t-190 -62.5q-115 0 -201.5 60.5t-131 162.5 t-44.5 230q0 209 110 339t298 130q72 0 150 -31t130 -78q17 11 35 25.5t26 22t31.5 30t26.5 25.5q18 14 31 14q16 0 16 -16v-674q0 -31 17.5 -48.5t48.5 -17.5q75 0 135.5 104.5t60.5 260.5q0 187 -86 336.5t-238 233t-341 83.5q-191 0 -345.5 -90t-242.5 -251.5t-88 -362.5 q0 -124 34 -239.5t107 -216t177 -170t254.5 -99t328.5 -5.5q24 3 31 -20l14 -92q3 -13 -4 -21t-18 -10q-178 -22 -327 -1t-268.5 78.5t-209 142t-149.5 190.5t-90 222.5t-30 238.5zM695.5 718.5q-14.5 -112.5 47.5 -247.5q51 -110 146 -154.5t180 -7.5q83 36 102 137 t-36 230q-58 133 -154.5 182.5t-187.5 9.5q-83 -37 -97.5 -149.5z" />
<glyph unicode="A" horiz-adv-x="1497" d="M12 78v5q0 23 25 26q160 24 213 165l440 1180q8 23 31 23h131q23 0 31 -23l379 -1180q28 -75 74 -114t124 -51q25 -3 25 -26v-5l-4 -53q-4 -25 -29 -25h-575q-25 0 -29 25l-4 53q-3 28 24 31q113 17 113 94q0 23 -10 51l-53 180h-455l-62 -180q-10 -29 -10 -53 q1 -27 13 -45q24 -36 100 -47q27 -3 24 -31l-4 -53q-4 -25 -28 -25h-451q-25 0 -29 25zM508 582h381l-178 565z" />
<glyph unicode="B" horiz-adv-x="1443" d="M63 78v5q0 23 25 26q84 13 124 49.5t40 115.5v928q0 80 -40 116.5t-124 49.5q-25 3 -25 26v5l5 53q4 25 28 25h547q179 0 319.5 -47t221 -138.5t80.5 -212.5q0 -106 -78.5 -183t-204.5 -101q70 -17 133 -47.5t121 -77.5t92.5 -118t34.5 -155q0 -133 -78.5 -224 t-210.5 -132t-311 -41h-666q-24 0 -28 25zM518 860h207q128 0 203.5 61.5t75.5 170.5q0 127 -104 202.5t-265 75.5q-117 0 -117 -98v-412zM539 236q0 -48 32 -81.5t84 -33.5h105q125 0 217 76.5t92 199.5q0 108 -58 189t-148.5 120t-198.5 39h-125v-509z" />
<glyph unicode="C" horiz-adv-x="1470" d="M72 743q0 115 29 227.5t87.5 211t139 174t190 119t234.5 43.5q86 0 173 -16t145.5 -32t74.5 -16q23 0 44 11.5t40 11.5h43q22 0 22 -23l4 -412q0 -12 -8 -20t-20 -8h-64q-27 0 -39 26q-68 167 -168.5 256.5t-255.5 89.5q-132 0 -227 -72t-139.5 -188t-44.5 -262 q0 -107 20.5 -208.5t63.5 -192.5t104 -159t148 -108t190 -40q338 0 485 393q10 24 35 14l70 -31q12 -8 12 -21q0 -6 -2 -13q-24 -89 -63 -168t-96.5 -147.5t-129 -117.5t-164.5 -77.5t-198 -28.5q-170 0 -311 63.5t-232.5 172t-141.5 249.5t-50 299z" />
<glyph unicode="D" horiz-adv-x="1574" d="M63 78v5q0 23 25 26q85 13 125.5 49.5t40.5 115.5l-2 928q0 80 -40 116.5t-124 49.5q-25 3 -25 26v5l5 53q4 25 28 25h543q127 0 251 -36t233.5 -109t194 -173.5t133.5 -238.5t50 -295v-7q0 -127 -37 -229q-38 -105 -105 -177t-161.5 -120t-204 -70t-235.5 -22h-662 q-24 0 -28 25zM516 1247l2 -1011q0 -48 32.5 -81.5t84.5 -33.5h117q220 0 349.5 129.5t129.5 372.5q0 212 -71.5 378t-208.5 261.5t-318 95.5q-53 0 -85 -32.5t-32 -78.5z" />
<glyph unicode="E" horiz-adv-x="1454" d="M63 78v5q0 23 25 26q85 13 125.5 49.5t40.5 115.5l-2 928q0 80 -40 116.5t-124 49.5q-25 3 -25 26v5l5 53q4 25 28 25h756q112 0 207 1.5t135 3.5l39 1q25 0 29 -25l4 -39q3 -23 -11 -43q-16 -23 -135 -200q-15 -23 -37 -23h-28q-20 0 -35 23q-22 32 -33 47.5t-43 49 t-61 51t-76.5 33t-99.5 15.5h-74q-115 0 -115 -100v-453h227q157 0 181 144q6 27 30 24l54 -4q24 -3 24 -29v-403q0 -26 -24 -29l-54 -4q-24 -3 -30 25q-24 141 -181 141h-206v-448q0 -55 30.5 -84t87.5 -29h66q90 0 165 18t129.5 47t107 79t90 98.5t85.5 121.5q15 21 39 21 h50q24 0 24 -25v-43q0 -15 -8 -43q-23 -67 -68 -216t-49 -163q-6 -22 -35 -22q-109 4 -340 4h-817q-24 0 -28 25z" />
<glyph unicode="F" horiz-adv-x="1318" d="M63 78v5q0 23 25 26q89 13 137.5 50.5t48.5 114.5l-2 928q0 80 -39.5 116.5t-123.5 49.5q-28 3 -25 31l4 53q4 25 29 25h755q112 0 204.5 1.5t129.5 3.5l37 1q25 0 29 -25l4 -39q1 -4 1 -9q0 -19 -11 -34q-85 -130 -125 -200q-13 -23 -37 -23h-29q-20 0 -35 23l-14 21 t-17 25t-19 25t-22.5 26.5t-25.5 24.5t-31 24.5t-34.5 19.5t-40.5 16.5t-45 9.5t-52 4h-86q-114 0 -114 -106v-445h211q78 0 131 37t65 107q6 27 31 24l53 -4q25 -4 25 -29v-424q0 -24 -25 -28l-53 -4q-25 -3 -31 24q-12 72 -66.5 117t-129.5 45h-191v-412q0 -78 48 -115 t136 -50q28 -3 25 -31l-4 -53q-4 -25 -29 -25h-639q-24 0 -28 25z" />
<glyph unicode="G" horiz-adv-x="1542" d="M72 743q0 115 30 227.5t90.5 211t144 174t198 119t245.5 43.5q86 0 177.5 -16t154 -32t78.5 -16q23 0 44 11.5t40 11.5h43q22 0 22 -23l4 -397q0 -12 -8 -20.5t-20 -8.5h-55q-24 0 -37 25q-79 160 -189 246.5t-266 86.5q-102 0 -186 -45t-138 -121t-83 -174.5t-29 -207.5 q0 -110 16.5 -210.5t56 -194.5t97.5 -162.5t147.5 -110t200.5 -41.5q121 0 192 61q19 16 19 43v219q0 44 -17.5 75t-51.5 48.5t-66.5 26.5t-79.5 16q-28 3 -25 31l4 63q4 25 29 25h612q25 0 29 -25l4 -53v-5q0 -23 -24 -26q-78 -12 -105 -46.5t-27 -118.5l5 -320 q0 -23 -23 -37q-233 -137 -510 -137q-164 0 -305 64t-236 171.5t-148.5 250t-53.5 298.5z" />
<glyph unicode="H" horiz-adv-x="1957" d="M63 78v5q0 23 25 26q85 13 125.5 49.5t40.5 115.5l-2 928q0 80 -40 116.5t-124 49.5q-25 3 -25 26v5l5 53q4 25 28 25h578q24 0 28 -25l5 -53q3 -28 -25 -31q-84 -13 -124 -49.5t-40 -116.5v-364h922v364q0 80 -40 116.5t-124 49.5q-28 3 -25 31l4 53q4 25 29 25h578 q24 0 28 -25l4 -53v-5q0 -23 -24 -26q-85 -13 -125.5 -50t-40.5 -116l2 -928q0 -79 40 -115.5t124 -49.5q24 -3 24 -26v-5l-4 -53q-4 -25 -28 -25h-596q-25 0 -29 25l-4 53q-3 28 24 31q84 13 124 49.5t40 115.5v408h-884v-408q0 -80 39.5 -116t123.5 -49q28 -3 25 -31 l-4 -53q-4 -25 -29 -25h-596q-24 0 -28 25z" />
<glyph unicode="I" horiz-adv-x="811" d="M74 78v5q0 23 24 26q86 13 129 49.5t43 115.5l-2 928q0 79 -42.5 116t-127.5 50q-24 3 -24 26v5l4 53q4 25 28 25h599q24 0 28 -25l4 -53v-5q0 -23 -24 -26q-86 -13 -129 -50t-43 -116l2 -928q0 -79 42 -115.5t128 -49.5q24 -3 24 -26v-5l-4 -53q-4 -25 -28 -25h-599 q-24 0 -28 25z" />
<glyph unicode="J" horiz-adv-x="1081" d="M25 133l143 160q22 18 41 16l47 -4q25 -3 31 -29l18 -77q22 -78 92 -78q162 0 162 301l-2 749q0 81 -51 133t-133 64q-28 3 -25 31l4 53q4 25 29 25h618q25 0 29 -25l4 -53v-5q0 -23 -24 -26q-84 -13 -124 -49.5t-40 -116.5l2 -727q0 -113 -46.5 -209.5t-123.5 -160.5 t-174.5 -100t-200.5 -36q-81 0 -155.5 23.5t-118.5 66.5q-16 16 -16 37q0 23 14 37z" />
<glyph unicode="K" horiz-adv-x="1615" d="M63 78v5q0 23 25 26q85 13 125.5 49.5t40.5 115.5l-2 928q0 80 -40 116.5t-124 49.5q-25 3 -25 26v5l5 53q4 25 28 25h570q24 0 28 -25l4 -53q3 -28 -24 -31q-81 -12 -113.5 -48t-32.5 -118v-502l473 488q39 40 39 82q0 11 -2 23q-14 54 -84 73q-25 6 -22 33l4 53 q4 25 29 25h516q24 0 28 -25l4 -51q4 -25 -18 -33q-152 -49 -311 -201l-350 -342l509 -532q120 -123 242 -187q19 -11 19 -29v-5l-7 -45q-2 -12 -10 -19.5t-20 -7.5h-594q-25 0 -29 25l-4 53q-3 22 23 31q37 11 61 35q24 23 28 58q0 3 1 6q0 32 -33 71l-361 376l-141 -139 v-242q0 -82 31.5 -117.5t112.5 -47.5q27 -3 24 -31l-4 -53q-4 -25 -29 -25h-557q-24 0 -28 25z" />
<glyph unicode="L" horiz-adv-x="1361" d="M63 78v5q0 23 25 26q85 13 125.5 49.5t40.5 115.5l-2 928q0 80 -40 116.5t-124 49.5q-25 3 -25 26v5l5 53q4 25 28 25h598q25 0 29 -25l4 -53q3 -28 -25 -31q-86 -13 -129 -50t-43 -116l2 -956q0 -113 109 -113q56 0 109.5 10.5t94 23.5t88 41t74.5 46t71.5 58t61.5 56.5 t60 59.5l27 27q20 20 39 20h30q25 0 25 -24v-86q0 -27 -14 -52q-9 -16 -70 -125t-90 -165q-11 -23 -35 -23q-72 4 -303 4l-713 -4q-24 0 -28 25z" />
<glyph unicode="M" horiz-adv-x="2027" d="M63 78v5q0 23 25 26q85 13 125.5 49.5t40.5 115.5l-2 928q0 80 -40 116.5t-124 49.5q-25 3 -25 26v5l5 53q4 25 28 25h631q25 0 29 -25l4 -53q3 -28 -25 -31q-75 -12 -98 -48q-12 -19 -12 -41q0 -20 10 -42l395 -922l363 916q8 20 8 39q0 24 -13 47q-24 40 -98 51 q-27 3 -24 31l4 53q4 25 28 25h633q25 0 29 -25l4 -53v-5q0 -23 -25 -26q-84 -13 -124.5 -49.5t-40.5 -116.5l2 -928q0 -80 39.5 -116t123.5 -49q25 -3 25 -26v-5l-4 -53q-4 -25 -29 -25h-581q-25 0 -29 25l-4 53q-3 28 24 31q84 13 124 49.5t40 115.5l-2 848l-461 -1120 q-12 -25 -34 -25h-74q-22 0 -35 25l-493 1122l2 -850q0 -80 39.5 -116t123.5 -49q28 -3 25 -31l-4 -53q-4 -25 -29 -25h-467q-24 0 -28 25z" />
<glyph unicode="N" horiz-adv-x="1798" d="M63 78v5q0 23 25 26q85 13 125.5 49.5t40.5 115.5l-2 922q0 80 -40.5 119.5t-123.5 52.5q-25 3 -25 26v5l5 53q4 25 28 25h391q20 0 37 -17l910 -995l-2 737q0 80 -40 116.5t-124 49.5q-28 3 -25 31l4 53q4 25 29 25h467q25 0 29 -25l4 -53v-5q0 -23 -25 -26 q-85 -13 -125.5 -50t-40.5 -116l2 -1177q0 -11 -8 -18t-20 -7h-74q-19 0 -37 18l-1042 1149l2 -893q0 -80 39.5 -116t123.5 -49q28 -3 25 -31l-4 -53q-4 -25 -29 -25h-467q-24 0 -28 25z" />
<glyph unicode="O" horiz-adv-x="1728" d="M72 727q0 223 106 405t285.5 284t392.5 102t396.5 -99.5t294 -277.5t110.5 -393q0 -225 -109.5 -407t-291.5 -282t-396 -100q-159 0 -304 58.5t-251.5 159.5t-169.5 244.5t-63 305.5zM340 846q0 -158 46 -292.5t124.5 -225t183.5 -141t221 -50.5q218 0 340.5 139.5 t122.5 374.5q0 158 -46 292.5t-124.5 225t-183.5 141t-221 50.5q-218 0 -340.5 -139.5t-122.5 -374.5z" />
<glyph unicode="P" horiz-adv-x="1361" d="M63 78v5q0 23 25 26q89 13 137.5 50.5t48.5 114.5l-2 928q0 80 -39.5 116.5t-123.5 49.5q-28 3 -25 31l4 53q4 25 31 25h651q157 0 280 -48t197 -147.5t74 -237.5t-73.5 -241t-196 -155t-275.5 -52h-217v-322q0 -76 56 -113.5t149 -51.5q27 -3 24 -31l-4 -53 q-4 -25 -28 -25h-660q-24 0 -28 25zM539 733h184q148 0 239 80t91 231q0 63 -19.5 117t-52 91t-75.5 63.5t-88.5 38.5t-92.5 12h-51q-62 0 -98.5 -33t-36.5 -88v-512z" />
<glyph unicode="Q" horiz-adv-x="1769" d="M72 727q0 223 106 405t285.5 284t392.5 102q160 0 307 -58t257 -157.5t175.5 -242.5t65.5 -304q0 -138 -40 -258t-112.5 -211t-165.5 -159t-208 -116q-11 -5 -12.5 -16t7.5 -19q58 -52 96 -84.5t98 -78.5t106.5 -74t114.5 -61.5t131 -51t146 -33.5t170 -18h27q76 0 164 7 q105 8 221 28q33 7 39 -21l11 -49q1 -6 1 -11q0 -20 -24 -26q-183 -44 -363 -60q-81 -6 -163 -6q-100 0 -201 10q-185 19 -341.5 75.5t-289 167.5t-211.5 268h-2q-159 0 -304 58.5t-251.5 159.5t-169.5 244.5t-63 305.5zM334 848q0 -161 47 -298t127 -229t187.5 -144 t226.5 -52q223 0 347 142t124 382q0 161 -47 298t-127 229t-187.5 144t-226.5 52q-223 0 -347 -142t-124 -382z" />
<glyph unicode="R" horiz-adv-x="1683" d="M63 78v5q0 23 25 26q89 13 137.5 50.5t48.5 114.5l-2 928q0 80 -39.5 116.5t-123.5 49.5q-28 3 -25 31l4 53q4 25 31 25h622q160 0 287 -48.5t204 -147.5t77 -234q0 -113 -72 -197t-199 -121q13 -18 62 -87.5t80.5 -111.5t91.5 -114.5t113 -124t126.5 -109.5t149.5 -100 q15 -9 15 -24q0 -7 -3 -15l-24 -51q-9 -18 -27 -18q-7 0 -16 3q-73 27 -139 64.5t-127.5 88.5t-105 91.5t-109.5 105.5l-29 29q-157 158 -273 220q-114 62 -259 61h-5v-363q0 -78 48 -115t136 -50q28 -3 25 -31l-4 -53q-4 -25 -29 -25h-639q-24 0 -28 25zM539 791h131 q72 0 134.5 15.5t113.5 46t80.5 83t29.5 121.5q0 143 -85.5 226t-227.5 83h-51q-54 0 -89.5 -31t-35.5 -80v-464z" />
<glyph unicode="S" horiz-adv-x="1243" d="M92 436q0 12 8.5 20.5t20.5 8.5h47q26 0 37 -25q66 -145 183.5 -235t287.5 -90q106 0 172.5 56.5t66.5 139.5q0 78 -41.5 131.5t-123.5 100.5q-283 159 -410 258q-115 90 -170 170.5t-55 185.5q0 157 122.5 247.5t311.5 90.5q96 0 197.5 -22.5t132.5 -22.5 q25 0 50.5 13.5t41.5 13.5h43q22 0 22 -23l4 -319q0 -12 -8 -20.5t-20 -8.5h-45q-23 0 -37 24q-22 39 -37 62.5t-50.5 64.5t-71.5 65t-94 43t-124 19q-90 0 -149.5 -45t-59.5 -120q0 -89 133 -189q140 -105 426 -264q268 -146 268 -387q0 -175 -137 -279 q-134 -103 -342 -102h-8q-100 1 -205 5.5t-139 4.5q-42 0 -97 -2t-89 -4l-35 -2q-23 0 -23 23z" />
<glyph unicode="T" horiz-adv-x="1658" d="M12 1149l109 340q10 27 35 27h51q16 0 37 -21q18 -18 61 -18h1151q50 0 76 22q20 17 39 17h55q12 0 18 -10q4 -6 5 -12q0 -4 -2 -9l-107 -342q-10 -23 -31 -23h-36q-25 0 -33 23q-18 47 -41 79.5t-65.5 64t-112.5 47.5t-168 16h-103l2 -1076q0 -78 48 -115t137 -50 q27 -3 24 -31l-4 -53q-4 -25 -29 -25h-639q-24 0 -28 25l-4 53q-3 28 24 31q89 13 138 50.5t49 114.5l-2 1076h-109q-77 0 -141 -13t-105.5 -31t-78.5 -48t-57 -54t-44 -59q-16 -25 -41 -25h-57q-12 0 -18 9q-4 6 -4 13q0 3 1 7z" />
<glyph unicode="U" horiz-adv-x="1581" d="M53 1399l4 53q4 25 29 25h578q24 0 28 -25l4 -53q3 -28 -24 -31q-84 -13 -124 -49.5t-40 -116.5v-756q0 -152 101 -239.5t261 -87.5q168 0 265.5 91t97.5 234v758q0 80 -40 116.5t-124 49.5q-28 3 -25 31l5 53q4 25 28 25h447q24 0 28 -25l4 -53v-5q0 -23 -24 -26 q-84 -13 -124 -49.5t-40 -116.5v-753q0 -157 -74 -266.5t-198.5 -161.5t-288.5 -52q-163 0 -289 54.5t-201 166.5t-75 269v743q0 80 -40 116.5t-124 49.5q-25 3 -25 26v5z" />
<glyph unicode="V" horiz-adv-x="1495" d="M12 1399l4 53q4 25 29 25h555q25 0 29 -25l4 -53q3 -28 -25 -31q-74 -11 -90 -49q-7 -15 -7 -33q0 -28 15 -63l287 -836l281 836q12 40 13 69.5t-22.5 48.5t-74.5 27q-28 3 -25 31l4 53q4 25 29 25h432q25 0 29 -25l4 -53v-5q0 -23 -25 -26q-159 -24 -213 -166 l-428 -1179q-8 -23 -31 -23h-77q-23 0 -31 23l-442 1179q-28 75 -74.5 114.5t-124.5 51.5q-25 3 -25 26v5z" />
<glyph unicode="W" horiz-adv-x="2349" d="M12 1399l4 53q4 25 29 25h524q25 0 29 -25l4 -53q3 -25 -24 -31q-69 -11 -87 -49q-8 -17 -8 -37q0 -26 13 -59l268 -832l291 832q12 32 12 58q-1 23 -9 39q-18 38 -87 48q-28 6 -25 31l4 53q4 25 29 25h514q25 0 29 -25l4 -53q3 -25 -25 -31q-69 -11 -87 -49 q-8 -17 -8 -37q0 -26 13 -59l299 -832l260 832q12 32 12 58q0 23 -8 39q-18 38 -88 48q-27 6 -24 31l4 53q4 25 29 25h401q25 0 29 -25l4 -53v-5q0 -23 -25 -26q-72 -12 -112.5 -50.5t-69.5 -115.5l-408 -1179q-8 -23 -30 -23h-78q-23 0 -31 23l-416 1073l-399 -1073 q-8 -23 -31 -23h-78q-22 0 -30 23l-424 1179q-30 80 -65 117.5t-103 48.5q-28 6 -25 31z" />
<glyph unicode="X" horiz-adv-x="1558" d="M33 78v5q0 23 24 26q131 20 248 165l359 428l-351 500q-99 144 -209 166q-27 6 -24 31l4 53q4 25 29 25h583q25 0 29 -25l4 -53q3 -28 -24 -31q-77 -12 -97 -58q-7 -16 -7 -33q0 -31 24 -63l170 -256l221 256q28 32 28 65q0 15 -6 29q-18 48 -94 60q-27 3 -24 31l4 53 q4 25 28 25h467q25 0 29 -25l4 -53q3 -28 -25 -31q-73 -11 -130.5 -53.5t-114.5 -112.5l-314 -354l404 -574q48 -72 101 -113t128 -52q25 -3 25 -26v-5l-4 -53q-4 -25 -29 -25h-627q-24 0 -28 25l-4 53q-3 28 24 31q80 12 108 57q13 20 12 41q0 27 -20 55l-219 328 l-252 -326q-24 -29 -24 -58q1 -19 11 -38q26 -47 104 -59q27 -3 24 -31l-4 -53q-4 -25 -29 -25h-503q-25 0 -29 25z" />
<glyph unicode="Y" horiz-adv-x="1361" d="M12 1399l4 53q4 25 29 25h557q25 0 29 -25l4 -53q3 -28 -25 -31q-76 -12 -94 -53q-6 -13 -6 -28q0 -30 25 -64l215 -371l200 371q20 33 20 61q0 17 -8 32q-20 40 -96 52q-27 3 -24 31l4 53q4 25 28 25h443q25 0 29 -25l4 -53v-5q0 -23 -25 -26q-152 -23 -233 -166 l-256 -450l2 -478q0 -79 40.5 -115.5t125.5 -49.5q27 -3 24 -31l-4 -53q-4 -25 -29 -25h-592q-24 0 -28 25l-4 53q-3 28 24 31q85 13 125.5 49.5t40.5 115.5v435l-325 493q-90 144 -199 166q-28 6 -25 31z" />
<glyph unicode="Z" horiz-adv-x="1425" d="M31 25v41q0 19 16 43l920 1249l-222 -6q-97 -6 -162 -17.5t-127.5 -39.5t-113.5 -75.5t-104 -123.5q-17 -25 -43 -13l-41 21q-11 5 -15 16t2 23l189 356q6 11 20 13q2 0 3 1q11 0 22 -8q21 -18 45 -23t76 -5h860q10 0 13.5 -9.5t-1.5 -17.5l-987 -1319l393 21 q164 10 291 80t235 206q18 27 46 13l40 -23q11 -5 16 -17q2 -5 2 -11q0 -7 -3 -13l-219 -432q-4 -13 -19 -13h-1q-14 0 -23 11q-25 26 -52 36.5t-73 10.5h-959q-10 0 -17 7t-7 18z" />
<glyph unicode="[" horiz-adv-x="634" d="M123 -471v1919q0 12 7.5 20.5t19.5 8.5h425q12 0 20.5 -7.5t8.5 -19.5v-78q0 -12 -8.5 -19t-20.5 -7h-241v-1715h241q12 0 20.5 -7t8.5 -19v-78q0 -12 -8.5 -19.5t-20.5 -7.5h-425q-12 0 -19.5 8.5t-7.5 20.5z" />
<glyph unicode="\" horiz-adv-x="1011" d="M106 1405q-10 26 15 37l94 33q9 4 19.5 -1t13.5 -16l657 -1804q10 -28 -14 -37l-94 -33q-22 -10 -33 15z" />
<glyph unicode="]" horiz-adv-x="634" d="M31 -395q0 12 8 19t20 7h242v1715h-242q-12 0 -20 7t-8 19v78q0 12 8 19.5t20 7.5h426q12 0 19.5 -8.5t7.5 -20.5v-1919q0 -12 -7.5 -20.5t-19.5 -8.5h-426q-12 0 -20 7.5t-8 19.5v78z" />
<glyph unicode="^" d="M180 641l469 811q14 25 41 25h96q27 0 41 -25l469 -811q14 -24 -8 -37l-74 -43q-27 -13 -40 10l-441 758l-430 -758q-14 -24 -41 -10l-74 43q-22 13 -8 37z" />
<glyph unicode="_" horiz-adv-x="819" d="M0 -27q0 12 8.5 19.5t20.5 7.5h762q12 0 20 -7.5t8 -19.5v-90q0 -12 -8 -19t-20 -7h-762q-12 0 -20.5 7t-8.5 19v90z" />
<glyph unicode="`" horiz-adv-x="1024" d="M305.5 1527q3.5 9 13.5 9h246q21 0 21 -20l2 -424q0 -9 -6 -15t-15 -6h-53q-20 0 -29 19l-178 421q-5 7 -1.5 16z" />
<glyph unicode="a" horiz-adv-x="1030" d="M33 201q0 100 79 174t210 123q105 41 229 75l2 142q0 40 -21.5 62t-62.5 22q-110 0 -238 -64q-12 -6 -23.5 -2.5t-17.5 15.5l-22 49q-10 23 12 37q189 114 410 114q213 0 213 -200l-6 -515q0 -30 17.5 -48.5t49.5 -18.5q51 0 111 29q10 6 22 2.5t13 -15.5l8 -57 q1 -5 1 -9q0 -19 -15 -34q-42 -40 -107.5 -68t-136.5 -28t-118.5 36.5t-68.5 102.5q-152 -145 -317 -145q-99 0 -161 62.5t-62 158.5zM266 256q0 -44 27.5 -71t73.5 -27q89 0 190 90l2 233q-112 -39 -197 -90q-96 -59 -96 -135z" />
<glyph unicode="b" horiz-adv-x="1124" d="M10 1292v41q0 24 21 33q95 39 151.5 76t124.5 98q16 16 39 16h35q25 -3 25 -26l-5 -680q115 115 287 115q167 0 271 -104t104 -286q0 -179 -89.5 -319t-236.5 -213.5t-323 -73.5q-117 0 -186.5 60.5t-69.5 179.5l-2 919q0 56 -32.5 91.5t-86.5 44.5q-27 6 -27 28z M406 276q0 -68 40.5 -105.5t104.5 -37.5q124 0 210.5 87.5t86.5 225.5t-77.5 218.5t-197.5 80.5q-47 0 -92.5 -19.5t-74.5 -51.5v-398z" />
<glyph unicode="c" horiz-adv-x="964" d="M57 465q0 222 137.5 361t346.5 139q161 0 254 -84q53 -43 59 -101q1 -6 1 -13q0 -51 -46 -89l-70 -55q-19 -15 -39 -15h-20q-21 0 -27 21q-29 100 -70.5 152.5t-121.5 52.5q-81 0 -129.5 -67.5t-48.5 -170.5q0 -182 90.5 -295t251.5 -113q144 0 235 111q19 23 43 8 l29 -20q12 -10 12 -23q0 -7 -4 -16q-22 -53 -57.5 -100.5t-85.5 -88.5t-119 -65.5t-148 -24.5q-139 0 -248 67.5t-167 180t-58 248.5z" />
<glyph unicode="d" horiz-adv-x="1243" d="M59 465q0 215 118.5 353t320.5 138q146 0 268 -98l-8 270q-1 56 -34 91.5t-87 44.5q-27 6 -27 28v41q0 24 21 33q95 39 153 76.5t125 97.5q16 16 39 16h35q25 -3 25 -26l-2 -1297q0 -32 18.5 -49.5t50.5 -17.5q53 0 113 29q10 6 22 2.5t13 -15.5l8 -57q1 -5 1 -9 q0 -19 -15 -34q-42 -40 -107.5 -68t-136.5 -28q-68 0 -114.5 36.5t-67.5 100.5q-48 -68 -127 -111t-170 -43q-131 0 -231.5 68t-152 180t-51.5 248zM270 641q-4 -27 -4 -55q0 -94 47 -205q55 -127 155 -177q58 -29 114 -29q41 0 82 15q92 36 120 144q9 35 9 73q0 82 -39 183 q-62 146 -168 200q-57 29 -113 28q-48 0 -94 -21q-91 -41 -109 -156z" />
<glyph unicode="e" horiz-adv-x="962" d="M61 463q0 214 130 358t331 144q72 0 131 -23t97.5 -62t63.5 -84.5t38 -97.5q4 -16 4 -32v-29q0 -24 -20 -31l-529 -200q33 -105 112 -165q75 -57 184 -57h11q69 1 134.5 34t109.5 87q19 23 43 8l29 -20q12 -10 12 -23q0 -7 -4 -16q-22 -53 -57.5 -101t-85.5 -90 t-119 -67.5t-148 -26.5h-4q-134 -1 -240 67q-108 68 -165.5 181.5t-57.5 245.5zM282 670q-3 -24 -3 -49q0 -53 14 -113l315 143q4 21 4 40q0 54 -29 95q-39 56 -116 56q-76 0 -125.5 -49t-59.5 -123z" />
<glyph unicode="f" horiz-adv-x="757" d="M39 68v5q0 22 24 25q81 12 114.5 48t33.5 118l-2 318q0 96 -32 150.5t-93 82.5q-27 13 -27 35v57q0 11 8.5 19t20.5 8h123q0 90 21 179.5t63 169t100 140.5t137 97t168 36q101 0 172.5 -56t71.5 -138q0 -81 -82 -121l-162 -74q-9 -5 -19.5 1t-10.5 16v39q0 25 14 49 q21 35 21 68q0 21 -8 40q-21 52 -85 52q-73 0 -119.5 -65t-46.5 -187v-246h261q12 0 20 -7.5t8 -19.5v-76q0 -12 -8 -19t-20 -7h-244l-2 -541q0 -82 32 -118t113 -48q28 -3 25 -30l-4 -43q-4 -25 -29 -25h-524q-25 0 -29 25z" />
<glyph unicode="g" horiz-adv-x="1097" d="M31 -244q0 112 162 168q-123 65 -123 170q0 63 53.5 109t132.5 67q-85 47 -132.5 129.5t-47.5 190.5q0 164 119 271.5t290 107.5q113 0 208.5 -46t152.5 -128q66 139 158 139q46 0 75 -27t29 -71q0 -45 -34 -75t-81 -30q5 18 -5 30.5t-30 12.5q-38 0 -69 -72 q16 -53 16 -104q0 -171 -120 -277t-293 -106q-72 0 -127 14q-66 -25 -66 -65q0 -52 94 -66q57 -9 188 -10.5t181 -5.5q126 -9 201 -71.5t75 -172.5q0 -94 -72.5 -167t-191.5 -111.5t-262 -38.5q-229 0 -355 66t-126 169zM231 -223q0 -69 71.5 -107.5t209.5 -38.5 q131 0 221 36t90 97q0 34 -27 56.5t-73 23.5q-20 1 -79 2t-86 2t-72.5 4t-82 8t-71.5 13l-43 12q-58 -45 -58 -108zM252 618q0 -68 30.5 -135t90.5 -113t133 -46q79 0 129.5 46.5t50.5 137.5q0 72 -30.5 140t-90 113.5t-133.5 45.5q-77 0 -128.5 -49t-51.5 -140z" />
<glyph unicode="h" horiz-adv-x="1228" d="M33 68v5q0 22 24 25q79 12 108.5 47.5t29.5 118.5l-2 864q0 56 -32.5 91.5t-86.5 44.5q-27 6 -27 28v41q0 24 21 33q95 39 153 76.5t125 97.5q16 16 39 16h35q24 -3 24 -26l-10 -791q88 94 167.5 144.5t182.5 50.5q117 0 185.5 -80t68.5 -199v-391q0 -84 27 -119t106 -47 q25 -3 25 -25v-5l-4 -43q-4 -25 -29 -25h-493q-25 0 -29 25l-4 43q-3 27 25 30q77 12 100.5 45.5t23.5 120.5v383q0 54 -29 85.5t-79 31.5q-57 0 -123 -41t-121 -117v-342q0 -87 23 -120.5t100 -45.5q28 -3 25 -30l-4 -43q-4 -25 -29 -25h-483q-25 0 -29 25z" />
<glyph unicode="i" horiz-adv-x="665" d="M43 68v5q0 22 25 25q82 12 118.5 48.5t36.5 117.5l-2 285q0 55 -35 89.5t-90 43.5q-26 6 -26 29v30q0 24 20 33q160 59 324 187q19 16 32 16q19 0 19 -16l-2 -697q0 -82 32 -118t113 -48q25 -3 25 -25v-5l-4 -43q-4 -25 -29 -25h-524q-25 0 -29 25zM145 1323q0 24 19 45 q53 60 117 117q21 19 45 19h2q25 -1 45 -21q53 -50 116 -117q21 -21 22 -45v-2q0 -23 -19 -43q-50 -60 -119 -117q-20 -20 -45 -20t-47 20q-80 75 -115 117q-21 21 -21 47z" />
<glyph unicode="j" horiz-adv-x="608" d="M-250 -330l111 127q17 20 41 17l26 -4q25 -3 31 -29l29 -74q29 -78 90 -78q62 0 99.5 59t37.5 177l-2 684q0 55 -32.5 89.5t-86.5 43.5q-26 6 -26 29v30q0 24 20 33q163 60 326 187q19 16 32 16q19 0 19 -16l-2 -838q0 -277 -139.5 -450t-348.5 -173q-148 0 -225 86 q-15 18 -15 42q0 26 15 42zM145 1323q0 24 19 45q53 60 117 117q21 19 46 19h1q25 -1 45 -21q53 -50 116 -117q22 -22 22 -46q0 -21 -19 -44q-66 -70 -119 -117q-23 -20 -46 -20l-46 20q-56 46 -115 117q-21 21 -21 47z" />
<glyph unicode="k" horiz-adv-x="1228" d="M33 68v5q0 22 24 25q79 12 108.5 47.5t29.5 118.5l-2 864q0 56 -32.5 91.5t-86.5 44.5q-27 6 -27 28v41q0 24 21 33q95 39 153 76.5t125 97.5q16 16 39 16h35q24 -3 24 -26l-10 -1030l191 198q34 37 34 71q1 6 -1 12q-8 39 -50 55q-23 9 -20 32l4 41q4 25 29 25h436 q24 0 28 -25l5 -41q3 -23 -21 -32q-106 -36 -186 -83t-174 -135l-47 -45l247 -245q172 -172 293 -230q22 -11 19 -32l-9 -41q-4 -25 -30 -25h-496q-25 0 -29 25l-4 38q-3 21 21 33q44 20 54 55q2 8 2 16q0 28 -28 62l-194 199l-72 -68v-96q0 -85 21.5 -119.5t87.5 -46.5 q27 -6 24 -30l-4 -43q-4 -25 -28 -25h-471q-25 0 -29 25z" />
<glyph unicode="l" horiz-adv-x="655" d="M33 68v5q0 22 24 25q82 12 116 48.5t34 117.5l-2 864q0 55 -33.5 91t-87.5 45q-27 6 -27 28v41q0 24 21 33q95 39 153 76.5t125 97.5q16 16 39 16h35q25 -3 25 -26l-2 -1266q0 -82 32 -118t113 -48q25 -3 25 -25v-5l-5 -43q-4 -25 -28 -25h-524q-25 0 -29 25z" />
<glyph unicode="m" horiz-adv-x="1804" d="M33 68v5q0 22 24 25q79 12 108.5 47.5t29.5 118.5l-2 309q0 56 -32.5 91.5t-86.5 44.5q-27 6 -27 28v43q0 25 21 31q168 50 335 143q24 15 46 15q10 0 15 -6.5t3 -16.5l-45 -209q41 44 76 75t80 61t95 45.5t105 15.5q93 0 154 -49.5t82 -136.5q84 87 168.5 136.5 t187.5 49.5q117 0 185.5 -80t68.5 -199v-391q0 -84 27 -119t106 -47q25 -3 25 -25v-5l-4 -43q-4 -25 -29 -25h-492q-24 0 -28 25l-4 43q-3 24 24 30q72 12 97.5 47t25.5 119v383q0 54 -29 85.5t-79 31.5q-57 0 -123.5 -42.5t-122.5 -117.5v-362q0 -68 22 -100t78 -44 q28 -6 25 -30l-4 -43q-4 -25 -29 -25h-414q-24 0 -28 25l-4 43q-3 24 24 30q50 12 71 44.5t21 99.5v401q0 54 -29.5 87.5t-78.5 33.5q-56 0 -119 -41.5t-119 -118.5v-340q0 -84 25.5 -119t97.5 -47q28 -6 25 -30l-4 -43q-4 -25 -29 -25h-483q-25 0 -29 25z" />
<glyph unicode="n" horiz-adv-x="1218" d="M33 68v5q0 22 24 25q79 12 108.5 47.5t29.5 118.5l-2 309q0 56 -32.5 91.5t-86.5 44.5q-27 6 -27 28v43q0 25 21 31q168 50 335 143q24 15 46 15q10 0 15 -6.5t3 -16.5l-45 -209q86 91 172 144t190 53q117 0 185.5 -80t68.5 -199v-391q0 -84 27 -119t106 -47 q25 -3 25 -25v-5l-4 -43q-4 -25 -29 -25h-493q-25 0 -29 25l-4 43q-3 27 25 30q77 12 100.5 45.5t23.5 120.5v383q0 54 -29 85.5t-79 31.5q-57 0 -123 -41t-121 -117v-342q0 -87 23 -120.5t100 -45.5q28 -3 25 -30l-4 -43q-4 -25 -29 -25h-483q-25 0 -29 25z" />
<glyph unicode="o" horiz-adv-x="1122" d="M63 469q0 218 137 357t357 139q136 0 251 -64t183 -179t68 -255q0 -223 -141.5 -363.5t-360.5 -140.5q-213 0 -353.5 146t-140.5 360zM280 640q-4 -27 -4 -55q0 -99 50 -212q64 -149 169 -215q62 -39 126 -40q44 0 90 19q103 43 123 165q4 28 4 58q0 98 -50 209 q-43 99 -110 165q-66 64 -136 82q-28 7 -56 7q-43 0 -85 -16q-103 -45 -121 -167z" />
<glyph unicode="p" horiz-adv-x="1234" d="M23 -432v5q0 23 24 26q81 12 114.5 47.5t33.5 117.5l-2 809q0 56 -32.5 91.5t-86.5 44.5q-27 6 -27 28v43q0 25 21 31q143 42 323 143q24 15 43 15q10 0 16.5 -7t4.5 -16l-37 -198q45 91 134.5 153t203.5 62q123 0 217.5 -67t144 -182t49.5 -259q0 -227 -121 -356.5 t-319 -129.5q-150 0 -289 107l6 -312q1 -80 41.5 -116t124.5 -49q28 -3 25 -31l-4 -43q-4 -25 -29 -25h-547q-24 0 -28 25zM432 582q-4 -25 -4 -54q0 -91 47 -206q55 -128 157 -180q59 -30 117 -30q41 0 80 15q92 35 119 147q9 35 9 75q0 83 -39 183q-62 145 -170 196 q-57 28 -112 28q-48 0 -95 -21q-90 -42 -109 -153z" />
<glyph unicode="q" horiz-adv-x="1142" d="M61 469q0 218 134.5 358t345.5 140q82 0 147 -24t137 -71q91 58 125 84q18 15 33 15q18 0 18 -17l-2 -1200q0 -73 30 -108t97 -47q28 -6 25 -31l-4 -43q-4 -25 -29 -25h-526q-25 0 -29 25l-4 43q-3 28 25 31q85 13 125.5 49.5t40.5 115.5l8 306q-53 -46 -126.5 -73.5 t-148.5 -27.5q-133 0 -230 68t-144.5 180t-47.5 252zM260 642q-4 -25 -4 -53q0 -92 49 -204q58 -129 157 -177q55 -28 109 -28q42 0 84 17q94 39 122 140q9 33 9 72q0 78 -38 177q-63 148 -172 205q-58 31 -113 31q-48 0 -94 -23q-90 -45 -109 -157z" />
<glyph unicode="r" horiz-adv-x="870" d="M33 68v5q0 22 24 25q79 12 108.5 47.5t29.5 118.5l-2 309q0 56 -32.5 91.5t-86.5 44.5q-27 6 -27 28v43q0 22 21 31q198 71 372 205q21 16 39 16q11 0 17 -8t2 -18q-93 -223 -138 -416q75 136 178.5 237t182.5 101q63 0 101 -35.5t38 -97.5q0 -73 -57 -117l-92 -70 q-9 -6 -19.5 -2.5t-13.5 12.5q-25 72 -90 72q-41 0 -81.5 -36.5t-72.5 -112.5v-277q0 -84 38 -118.5t124 -47.5q28 -3 25 -30l-5 -43q-4 -25 -28 -25h-522q-25 0 -29 25z" />
<glyph unicode="s" horiz-adv-x="923" d="M80 291q0 12 8.5 20t20.5 8h34q21 0 37 -22q25 -37 55.5 -69.5t72 -65.5t94.5 -52.5t108 -19.5q59 0 97 26t38 68q0 44 -32.5 72t-112.5 68q-116 58 -213 120q-187 118 -187 271q0 115 81.5 180.5t213.5 65.5q60 0 144 -26t104 -26q23 0 46.5 12.5t37.5 12.5h29 q22 0 22 -23l4 -239q0 -12 -7 -20.5t-19 -8.5h-33q-20 0 -37 25q-20 27 -29 39t-41 46.5t-58.5 53.5t-68 36t-81.5 17q-43 0 -72 -24t-29 -60q0 -39 30.5 -70t92.5 -69q128 -77 225 -127q199 -103 199 -260q0 -123 -92.5 -196.5t-235.5 -73.5q-49 0 -149.5 11t-106.5 11 q-39 3 -74 3q-46 0 -85 -5q-11 -2 -19 5.5t-8 17.5z" />
<glyph unicode="t" horiz-adv-x="747" d="M43 895v6q0 21 18 33q190 125 308 336q13 22 39 22h67q13 0 19.5 -7.5t3.5 -20.5l-72 -330h264q12 0 19 -8.5t4 -20.5l-17 -76q-6 -24 -32 -24h-201l-35 2l-2 -574q0 -83 74 -83q29 0 74 26.5t71 52.5q11 10 24 8.5t19 -12.5l37 -51q6 -10 6 -19q0 -12 -12 -22 q-75 -68 -162 -115t-164 -47q-103 0 -160 59q-55 57 -55 153v7v496q0 52 -23 77t-73 38q-26 7 -29 30z" />
<glyph unicode="u" horiz-adv-x="1208" d="M23 866l4 43q4 25 28 25h336q12 0 19.5 -7t7.5 -18q0 -158 -21 -614v-9q0 -54 32 -86q35 -34 97 -34q96 0 224 135v369q0 77 -28 115.5t-97 50.5q-28 6 -25 30l4 43q4 25 29 25h336q12 0 19 -7t7 -18l-2 -688q0 -31 20 -49t52 -18q35 0 90 20q10 5 21 0.5t12 -16.5l8 -49 v-7q0 -20 -14 -34q-88 -88 -219 -88q-92 0 -145.5 43.5t-67.5 121.5q-192 -176 -355 -176q-110 0 -175 65q-64 64 -64 176q0 77 8 242q8 146 8 220q0 76 -28 114t-97 50q-27 6 -24 30z" />
<glyph unicode="v" horiz-adv-x="1085" d="M12 868l4 41q4 25 29 25h457q24 0 28 -25l5 -41q3 -23 -21 -32q-28 -11 -47 -31.5t-25 -50.5q-1 -7 -1 -16q0 -24 14 -52l161 -371l152 371q10 30 10 55q0 23 -8 41q-18 38 -61 54q-24 9 -21 32l4 41q4 25 29 25h319q25 0 29 -25l4 -41v-5q0 -19 -20 -27 q-67 -28 -107.5 -69t-68.5 -110l-267 -634q-10 -23 -32 -23h-41q-22 0 -33 25l-303 632q-38 77 -71 114t-97 65q-24 9 -21 32z" />
<glyph unicode="w" horiz-adv-x="1675" d="M12 868l4 41q4 25 29 25h457q24 0 28 -25l5 -41q3 -23 -21 -32q-28 -11 -47 -31.5t-25 -50.5q-1 -7 -1 -16q0 -24 14 -52l153 -373l150 373q9 24 9 46q-1 25 -13 47q-24 40 -68 57q-23 9 -20 32l4 41q4 25 28 25h404q24 0 28 -25l5 -41q3 -23 -21 -32q-28 -11 -47 -31.5 t-25 -50.5q-1 -7 -2 -16q0 -24 15 -52l164 -371l139 371q10 30 10 54q0 23 -9 42q-18 38 -61 54q-23 9 -20 32l4 41q4 25 29 25h319q25 0 29 -25l4 -41q3 -23 -21 -32q-67 -28 -107.5 -69t-68.5 -110l-249 -634q-10 -23 -33 -23h-51q-22 0 -33 25l-260 553l-234 -555 q-10 -23 -33 -23h-51q-22 0 -33 25l-288 632q-38 77 -71 114t-97 65q-24 9 -21 32z" />
<glyph unicode="x" horiz-adv-x="1300" d="M16 66q-3 23 21 32q192 65 358 217l150 136l-148 155q-151 161 -295 230q-21 11 -18 32l8 41q4 25 31 25h483q25 0 29 -25l4 -39q3 -20 -21 -32q-42 -19 -46 -55v-8q0 -33 34 -70l78 -84l82 77q40 41 40 79q0 45 -44 61q-24 9 -21 32l4 39q4 25 29 25h424q25 0 29 -25 l4 -41q3 -23 -21 -32q-184 -62 -362 -213l-90 -78l213 -217q172 -172 293 -230q18 -10 18 -27v-5l-8 -41q-4 -25 -31 -25h-510q-24 0 -28 25l-5 38q-3 21 21 33q43 22 55 58q3 9 3 18q0 29 -27 61l-129 136l-138 -133q-37 -39 -37 -75v-9q4 -40 46 -56q23 -9 20 -33l-6 -38 q-4 -25 -29 -25h-430q-25 0 -29 25z" />
<glyph unicode="y" horiz-adv-x="1075" d="M12 868l4 41q4 25 29 25h457q24 0 28 -25l5 -41q3 -23 -21 -32q-43 -16 -59 -58q-6 -16 -6 -34q0 -29 16 -62l145 -283l129 287q13 31 13 57q0 20 -8 37q-17 40 -60 56q-23 9 -20 32l4 41q4 25 28 25h334q25 0 29 -25l4 -41q3 -23 -21 -32q-64 -26 -101.5 -66.5 t-74.5 -112.5l-510 -999q-9 -15 -23 -15q-8 0 -18 5l-69 37q-24 14 -10 41l239 436l-274 495q-42 71 -77 109.5t-91 69.5q-24 12 -21 32z" />
<glyph unicode="z" horiz-adv-x="983" d="M18 25v30q0 20 17 45l600 729q-185 0 -304.5 -41t-193.5 -139q-8 -11 -21.5 -13t-25.5 5l-35 21q-24 14 -12 38l129 256q6 12 20 14h6q11 0 21 -7q24 -17 45.5 -23t67.5 -6h608q14 0 20 -10q2 -5 2 -10q0 -6 -4 -13l-634 -780q398 0 536 182q19 27 47 12l39 -20 q17 -10 17 -25q0 -8 -5 -18l-131 -275q-7 -10 -21 -12h-5q-11 0 -21 6q-47 29 -143 29h-594q-11 0 -18 7t-7 18z" />
<glyph unicode="{" horiz-adv-x="778" d="M121 516v68q0 26 26 26q56 0 103 17q76 28 107 92t3 162q-37 131 -44 167q-70 361 257 433q29 7 35 -17l15 -43q6 -23 -17 -32q-66 -21 -100.5 -50.5t-39 -65t5.5 -74.5t31 -85.5t41 -91t33.5 -97.5t8.5 -98q-7 -68 -40 -122t-81 -85.5t-101 -49t-108 -19.5 q74 -3 143 -32t123.5 -93.5t63.5 -153.5q5 -45 -8.5 -98t-33.5 -97t-41 -90.5t-31 -85.5t-5.5 -75t39 -65t100.5 -50q23 -9 17 -33l-15 -43q-6 -23 -35 -16q-76 17 -130 49.5t-83 70.5t-42.5 88.5t-14.5 94.5t8 98.5t18 90t22 78.5q6 21 9 30q28 99 -3.5 164.5t-106.5 89.5 q-53 16 -103 16q-26 0 -26 27z" />
<glyph unicode="|" horiz-adv-x="798" d="M317 -471v1921q0 10 8.5 18.5t18.5 8.5h111q12 0 19 -8.5t7 -20.5v-1923q0 -11 -7 -18t-19 -7h-111q-27 0 -27 29z" />
<glyph unicode="}" horiz-adv-x="778" d="M156 -322q-6 25 16 33q76 24 110.5 61t32 77.5t-21.5 93.5t-44.5 102.5t-43 112t-12.5 114.5q8 89 62.5 153.5t123.5 93.5t143 32q-43 2 -86 12.5t-85 32.5t-74.5 53t-55.5 77t-28 101q-5 52 12.5 114.5t43 112t44.5 103t21.5 94t-32 77.5t-110.5 61q-22 8 -16 32l14 43 q6 24 35 17q76 -17 130 -49.5t83 -70.5t42.5 -88.5t14.5 -94.5t-8 -98.5t-18 -90t-22 -78.5q-6 -21 -9 -30q-28 -98 3 -162t107 -92q47 -17 103 -17q26 0 26 -26v-68q0 -27 -26 -27q-50 0 -103 -16q-75 -24 -106.5 -89.5t-3.5 -164.5q37 -131 44 -167q70 -361 -257 -433 q-29 -7 -35 16z" />
<glyph unicode="~" d="M174 586q5 75 20 130t45.5 99.5t83 67t126.5 22.5q73 0 164.5 -28.5t163 -62.5t147.5 -62.5t120 -28.5q67 0 105 43.5t47 118.5q1 12 10 17.5t21 2.5l59 -12q25 -6 21 -35q-5 -75 -20 -130t-45.5 -99.5t-83 -67t-126.5 -22.5q-60 0 -146 28.5t-159 62.5t-155.5 62.5 t-135.5 28.5q-127 0 -151 -162q-1 -12 -10 -17.5t-21 -2.5l-59 12q-25 6 -21 35z" />
<glyph unicode="&#xa1;" horiz-adv-x="667" d="M155 778q1 25 21 45q33 41 111 113q22 20 47 20t45 -20q66 -54 115 -113q20 -20 19 -45t-21 -45q-45 -48 -113 -112q-21 -21 -45.5 -22t-46.5 19q-62 55 -113 113q-20 22 -19 47zM160 -356q50 247 74.5 398.5t60.5 422.5q3 29 29 29h16q12 0 21 -8t10 -21 q33 -255 58 -409t77 -412q13 -59 -25 -97q-30 -30 -100 -88q-46 -40 -96 0q-76 63 -101 88q-37 37 -24 97z" />
<glyph unicode="&#xa2;" horiz-adv-x="1351" d="M254 731q0 141 62 252t169 176l-131 363q-4 10 1 19.5t16 14.5l102 37q12 4 22 -1t13 -17l131 -356q52 12 113 12q78 0 155 -22t121 -62q53 -43 59.5 -101.5t-43.5 -101.5l-67 -55q-19 -15 -41 -15h-21q-20 0 -26 21q-60 204 -217 207l237 -645q108 32 176 116 q20 24 43 9l29 -21q19 -16 8 -39q-59 -142 -192 -223l125 -340q7 -23 -19 -33l-102 -37q-28 -9 -35 19l-123 334q-37 -6 -78 -6q-139 0 -251.5 67t-174 180t-61.5 248zM463 862q-3 -164 72 -280.5t217 -137.5l-217 596q-72 -72 -72 -178z" />
<glyph unicode="&#xa3;" horiz-adv-x="1351" d="M80 25v49q0 28 20 39q22 13 69 39t70.5 39.5t65 38.5t63.5 41t55 42.5t51 47t40 49.5t33 57t18.5 61.5t7.5 69.5h-299q-12 0 -20 7.5t-8 19.5v86q0 12 8 19t20 7h277q-16 48 -49.5 115t-60.5 117t-48 115.5t-22 123.5q0 145 89 227.5t240 82.5q258 0 469 -263 q20 -25 -4 -49l-47 -45q-8 -10 -23.5 -9.5t-25.5 13.5q-134 154 -260 154q-90 0 -141.5 -50t-51.5 -145q0 -60 17 -125t44 -141t38 -121h278q12 0 20.5 -7t8.5 -19v-86q0 -12 -8.5 -19.5t-20.5 -7.5h-264q-11 -266 -309 -405l250 8q158 4 257.5 59.5t186.5 179.5 q15 21 39 21h49q25 0 25 -25v-43q0 -24 -8 -43q-59 -155 -117 -332q-6 -22 -35 -22q-109 4 -340 4h-623q-24 0 -24 25z" />
<glyph unicode="&#xa4;" horiz-adv-x="1363" d="M205 680q0 160 92 285l-80 82q-18 18 -2 38l61 62q20 17 39 -2l80 -82q127 94 287 94q158 0 285 -94l82 82q18 18 38 2l62 -62q16 -20 -2 -38l-82 -82q94 -127 94 -285q0 -160 -94 -287l82 -80q19 -19 2 -39l-62 -61q-20 -16 -38 2l-82 80q-125 -92 -285 -92 q-162 0 -287 92l-80 -80q-19 -19 -39 -2l-61 61q-17 20 2 39l80 80q-92 125 -92 287zM346 680q0 -144 96.5 -241t239.5 -97t239.5 97t96.5 241q0 143 -97 240.5t-239 97.5q-143 0 -239.5 -97t-96.5 -241z" />
<glyph unicode="&#xa5;" horiz-adv-x="1351" d="M61 1399l5 53q4 25 28 25h520q25 0 29 -25l4 -53q3 -28 -24 -31q-135 -20 -66 -145l176 -326l170 326q67 124 -74 145q-27 3 -24 31l4 53q4 25 29 25h419q25 0 29 -25l4 -53q3 -28 -24 -31q-142 -21 -224 -166l-153 -268h317q12 0 20.5 -7.5t8.5 -19.5v-86 q0 -12 -8.5 -19t-20.5 -7h-387v-140h387q12 0 20.5 -7t8.5 -19v-86q0 -12 -8.5 -19.5t-20.5 -7.5h-387v-242q0 -79 40.5 -115.5t125.5 -49.5q28 -3 25 -31l-4 -53q-4 -25 -29 -25h-586q-25 0 -29 25l-4 53q-3 28 25 31q85 13 125.5 49.5t40.5 115.5v242h-404q-12 0 -20 7.5 t-8 19.5v86q0 12 8 19t20 7h404v140h-404q-12 0 -20 7t-8 19v86q0 12 8 19.5t20 7.5h320l-180 268q-96 145 -199 166q-28 6 -25 31z" />
<glyph unicode="&#xa6;" horiz-adv-x="798" d="M317 117q0 10 8 18t19 8h111q12 0 19 -8t7 -20v-590q0 -11 -7 -18t-19 -7h-111q-27 0 -27 29v588zM317 862v588q0 10 8.5 18.5t18.5 8.5h111q12 0 19 -8.5t7 -20.5v-590q0 -24 -26 -24h-111q-27 0 -27 28z" />
<glyph unicode="&#xa7;" horiz-adv-x="1269" d="M133 561q6 104 78 181t170 118q-176 151 -176 307q0 158 100.5 243t263.5 85q86 0 177 -22.5t124 -22.5q25 0 51 13.5t42 13.5h43q22 0 22 -23l4 -330q0 -12 -8 -20t-20 -8h-46q-22 0 -36 24q-17 30 -25 44t-30.5 47t-40 51.5t-47.5 45t-59 41t-68.5 25t-82.5 10.5 q-73 0 -118 -41.5t-45 -113.5q0 -105 131 -193q59 -40 383 -233q112 -66 167.5 -145.5t49.5 -194.5q-6 -105 -78 -181.5t-170 -117.5q182 -156 182 -307q0 -157 -103.5 -242.5t-267.5 -85.5q-86 0 -187 22.5t-134 22.5q-25 0 -50.5 -13.5t-41.5 -13.5h-43q-23 0 -23 23 l-4 330q0 12 8.5 20t20.5 8h45q23 0 37 -24q150 -264 372 -264q73 0 118.5 41.5t45.5 113.5q0 105 -131 193q-59 40 -383 233q-112 66 -167.5 145.5t-49.5 194.5zM350 637q-3 -38 9.5 -70.5t41 -61.5t54 -47.5t67.5 -45.5q214 -132 279 -179q112 58 119 154q3 38 -9.5 70.5 t-41 61.5t-54 47.5t-67.5 45.5q-15 9 -61 37t-74.5 45.5t-70 45t-73.5 51.5q-112 -60 -119 -154z" />
<glyph unicode="&#xa8;" horiz-adv-x="1015" d="M145 1354q43 49 107 106q20 19 44 18.5t44 -20.5q61 -57 104 -106q17 -21 18 -45t-16 -45q-62 -66 -106 -107q-46 -39 -88 0q-40 38 -105 107q-41 47 -2 92zM569 1354q43 49 107 106q20 19 44 18.5t44 -20.5q61 -57 104 -106q17 -21 18 -45t-16 -45q-62 -66 -106 -107 q-46 -39 -88 0q-40 38 -105 107q-41 47 -2 92z" />
<glyph unicode="&#xa9;" horiz-adv-x="1693" d="M102 739q0 156 57.5 297t156 243.5t237 163t293.5 60.5q207 0 378.5 -102.5t269 -278t97.5 -383.5q0 -125 -36.5 -240.5t-104.5 -209t-159 -163.5t-206 -108t-239 -38q-155 0 -293.5 59.5t-237 161t-156 242t-57.5 296.5zM229 739q0 -178 79 -325t221 -233.5t317 -86.5 t318 86.5t222.5 234t79.5 324.5q0 178 -79.5 327.5t-222.5 238t-318 88.5q-131 0 -247 -52t-196.5 -140.5t-127 -208.5t-46.5 -253zM414 743q0 119 49.5 223t148 172t226.5 68q71 0 150.5 -19.5t82.5 -19.5q23 0 44 11.5t40 11.5h35q22 0 22 -23l5 -295q0 -12 -8.5 -20 t-20.5 -8h-51q-30 0 -39 26q-86 234 -267 234q-116 0 -179.5 -79.5t-65.5 -211.5q-1 -107 33 -194.5t102.5 -141t159.5 -53.5q198 0 276 217q4 11 14.5 15t20.5 -1l65 -28q7 -4 10.5 -15t0.5 -20q-42 -141 -148.5 -237.5t-259.5 -96.5q-102 0 -187.5 40.5t-141.5 108.5 t-86.5 155t-30.5 181z" />
<glyph unicode="&#xaa;" horiz-adv-x="942" d="M78 893q0 151 225 231q79 27 189 60l2 104q0 32 -19 50t-51 18q-94 0 -193 -51q-9 -5 -18.5 -2t-13.5 12l-19 39q-7 20 10 30q154 93 328 93q170 0 170 -162l-6 -402q0 -25 14.5 -39t40.5 -14q38 0 90 23q7 5 16.5 2t10.5 -13l6 -45q3 -18 -10 -34q-34 -32 -86.5 -54 t-108.5 -22q-118 0 -149 106q-58 -55 -115.5 -83.5t-130.5 -28.5q-82 0 -132 51.5t-50 130.5zM260 934q0 -36 22 -58t58 -22q76 0 160 72l2 186q-76 -24 -166 -70q-76 -39 -76 -108z" />
<glyph unicode="&#xab;" horiz-adv-x="1228" d="M113 537v98q0 19 16 31l508 409q9 8 21 4t12 -16v-125q0 -26 -23 -45l-385 -307l385 -305q23 -19 23 -45v-127q0 -12 -12 -16.5t-21 3.5l-508 410q-16 12 -16 31zM580 537v98q0 19 16 31l508 409q9 8 21 4t12 -16v-125q0 -26 -23 -45l-385 -307l385 -305q23 -19 23 -45 v-127q0 -12 -12 -16.5t-21 3.5l-508 410q-16 12 -16 31z" />
<glyph unicode="&#xac;" d="M123 637v86q0 12 8.5 19.5t20.5 7.5h1175q12 0 20.5 -7.5t8.5 -19.5v-694q0 -12 -7.5 -20.5t-19.5 -8.5h-96q-12 0 -19.5 8.5t-7.5 20.5v581h-1054q-12 0 -20.5 7.5t-8.5 19.5z" />
<glyph unicode="&#xad;" horiz-adv-x="614" d="M25 385l57 152q13 38 61 38h412q21 0 31.5 -13.5t3.5 -33.5l-58 -151q-14 -39 -61 -39h-412q-21 0 -31 13.5t-3 33.5z" />
<glyph unicode="&#xae;" horiz-adv-x="1693" d="M102 739q0 156 57.5 297t156 243.5t237 163t293.5 60.5q207 0 378.5 -102.5t269 -278t97.5 -383.5q0 -125 -36.5 -240.5t-104.5 -209t-159 -163.5t-206 -108t-239 -38q-155 0 -293.5 59.5t-237 161t-156 242t-57.5 296.5zM229 739q0 -178 79 -325t221 -233.5t317 -86.5 q140 0 260 56.5t207 156.5q-37 14 -77.5 42.5t-61.5 47.5t-66.5 66.5t-52.5 54.5q-94 94 -153 124.5t-150 29.5v-97q0 -73 33.5 -113t105.5 -52q27 -6 24 -31l-4 -49q-4 -25 -28 -25h-437q-24 0 -28 25l-4 49q-3 25 24 31q142 24 142 165v353q0 71 -30 108t-99 49 q-28 6 -25 31l4 49q4 25 29 25h403q160 0 262.5 -65.5t102.5 -186.5q0 -66 -50 -120.5t-133 -82.5q21 -23 60.5 -76.5t73.5 -98.5t86.5 -95.5t105.5 -79.5q96 161 96 354q0 178 -79.5 327.5t-222.5 238t-318 88.5q-131 0 -247 -52t-196.5 -140.5t-127 -208.5t-46.5 -253z M743 782h80q91 0 151 38.5t60 115.5q0 76 -50 116t-136 40q-47 0 -76 -26t-29 -71v-213z" />
<glyph unicode="&#xaf;" horiz-adv-x="886" d="M125 1221l43 102q14 31 45 31h518q17 0 25 -11t2 -28l-41 -103q-13 -30 -45 -30h-520q-17 0 -25 11t-2 28z" />
<glyph unicode="&#xb0;" horiz-adv-x="813" d="M102 1182q0 125 88 210t216 85t216.5 -85t88.5 -210t-88.5 -209t-216.5 -84t-216 84t-88 209zM236 1182q0 -73 48 -124.5t122 -51.5t123 51.5t49 124.5q0 74 -49 126t-123 52t-122 -51.5t-48 -126.5z" />
<glyph unicode="&#xb1;" d="M203 27v86q0 12 8 19t20 7h1176q12 0 20.5 -7t8.5 -19v-86q0 -12 -8.5 -19.5t-20.5 -7.5h-1176q-12 0 -20 7.5t-8 19.5zM203 821v86q0 12 8 19.5t20 7.5h519v514q0 12 7 20.5t19 8.5h86q12 0 19.5 -8.5t7.5 -20.5v-514h518q12 0 20.5 -7.5t8.5 -19.5v-86q0 -12 -8.5 -19 t-20.5 -7h-518v-514q0 -12 -7.5 -20.5t-19.5 -8.5h-86q-12 0 -19 8.5t-7 20.5v514h-519q-12 0 -20 7t-8 19z" />
<glyph unicode="&#xb2;" horiz-adv-x="819" d="M59 1108v31q0 19 11 37q53 89 127.5 163t191.5 152q121 79 121 162q0 55 -33 84.5t-88 29.5q-32 0 -60.5 -9.5t-57 -32t-47.5 -41t-52 -52.5q-19 -22 -41 -4l-33 31q-8 6 -8.5 17t6.5 22q76 99 156.5 153t189.5 54q117 0 185.5 -58t68.5 -159q0 -91 -65.5 -158.5 t-196.5 -132.5q-106 -53 -205 -142l215 5q65 1 99 14t84 55q14 14 32 14h41q21 0 21 -18v-35q0 -19 -8 -30l-119 -158q-11 -17 -31 -17h-483q-9 0 -15 7t-6 16z" />
<glyph unicode="&#xb3;" horiz-adv-x="819" d="M57 1204q0 48 43 78l144 96q8 5 16 1.5t8 -13.5v-35q0 -23 -8 -35q-13 -19 -18 -42.5t-0.5 -47t30 -39.5t68.5 -16q83 0 146 61t63 138q0 33 -9.5 57t-28 37t-41.5 20t-56 6t-65 -5.5t-73 -12.5q-9 -1 -15.5 5.5t-6.5 15.5v47q0 21 22 24l41 8q80 17 126 58t46 90 q0 43 -29 66.5t-77 23.5q-95 0 -203 -104q-9 -9 -20 -8.5t-19 8.5l-26 30q-19 20 0 39q80 77 153.5 113.5t171.5 36.5q93 0 150 -42t57 -120q0 -57 -43.5 -107.5t-126.5 -81.5q118 19 188 -29.5t70 -148.5q0 -84 -62 -159t-157 -117.5t-192 -42.5q-131 0 -199 43t-68 104z " />
<glyph unicode="&#xb4;" horiz-adv-x="1024" d="M451 1092l2 424q0 20 20 20h246q10 0 13.5 -9t-1.5 -16l-178 -421q-9 -19 -29 -19h-53q-20 0 -20 21z" />
<glyph unicode="&#xb6;" horiz-adv-x="952" d="M0 1182q0 124 83.5 209.5t211.5 85.5h506q12 0 20 -8t8 -19v-57q0 -22 -26 -35q-61 -28 -93 -83t-32 -151v-1595q0 -12 -7.5 -20.5t-19.5 -8.5h-84q-12 0 -19 8.5t-7 20.5v1808h-107v-1808q0 -12 -7 -20.5t-19 -8.5h-86q-12 0 -19.5 8.5t-7.5 20.5v1358 q-128 0 -211.5 85.5t-83.5 209.5z" />
<glyph unicode="&#xb7;" horiz-adv-x="675" d="M141 760q-1 28 21 51q57 64 125 125q23 22 50.5 21t49.5 -23q66 -63 125 -125q22 -22 23 -49.5t-21 -50.5q-52 -58 -125 -123q-23 -22 -51 -22t-51 22q-84 79 -123 123q-22 23 -23 51z" />
<glyph unicode="&#xb8;" horiz-adv-x="698" d="M113 -424q-14 21 4 35l33 31q19 19 34 0q68 -64 140 -64q53 0 86.5 27.5t33.5 72.5q0 44 -29.5 69.5t-72.5 25.5q-47 0 -104 -37q-17 -12 -35 0l-29 22q-14 11 -8 29l80 215q8 23 33 23h108q9 0 13 -8.5t-1 -16.5l-141 -182q71 51 162 51q81 0 136.5 -49.5t55.5 -132.5 q0 -95 -77 -155t-199 -60q-78 0 -134.5 32.5t-88.5 71.5z" />
<glyph unicode="&#xb9;" horiz-adv-x="819" d="M158 1692q-3 20 14 28q94 50 199 142q19 16 39 16h82q20 -3 20 -23l-2 -559q0 -63 33 -92.5t102 -40.5q21 0 21 -24l-4 -33q-4 -21 -23 -21h-436q-19 0 -23 21l-4 33q-1 10 4.5 17t16.5 7q68 11 101.5 40.5t33.5 92.5v289q0 36 -21 52.5t-59 13.5l-59 -6q-23 -3 -29 18z " />
<glyph unicode="&#xba;" horiz-adv-x="942" d="M78 1096q0 164 110.5 275.5t278.5 111.5q160 0 278.5 -113.5t118.5 -275.5q0 -168 -113.5 -278.5t-283.5 -110.5q-163 0 -276 113t-113 278zM247 1231q-19 -95 32 -209q51 -116 132.5 -166t170.5 -16q84 30 103 126t-32 210q-50 117 -135 166.5t-168 15.5 q-84 -32 -103 -127z" />
<glyph unicode="&#xbb;" horiz-adv-x="1228" d="M92 109v127q0 26 23 45l385 305l-385 307q-23 19 -23 45v125q0 12 12 16t21 -4l508 -409q16 -12 16 -31v-98q0 -19 -16 -31l-508 -410q-9 -8 -21 -3.5t-12 16.5zM559 109v127q0 26 23 45l385 305l-385 307q-23 19 -23 45v125q0 12 12 16t21 -4l508 -409q16 -12 16 -31 v-98q0 -19 -16 -31l-508 -410q-9 -8 -21 -3.5t-12 16.5z" />
<glyph unicode="&#xbc;" horiz-adv-x="1589" d="M82 1290q-3 21 14 29q97 52 199 141q20 17 39 17h82q20 -3 20 -23l-2 -559q0 -63 33 -92.5t102 -40.5q21 0 21 -25l-4 -32q-4 -21 -23 -21h-436q-19 0 -23 21l-4 32q-2 11 4.5 18t16.5 7q68 11 101.5 40.5t33.5 92.5v289q0 36 -21.5 53t-58.5 12l-59 -6q-23 -3 -29 19z M130 12q-5 12 3 21l1172 1417q20 27 49 27h88q12 0 17 -12t-3 -21l-1171 -1417q-23 -27 -49 -27h-89q-12 0 -17 12zM803 301q-7 23 8 41l358 432q15 19 37 19h111q10 0 16 -7t6 -16v-461h144q22 0 22 -20v-68q0 -20 -22 -20h-144q0 -63 31 -87t103 -36q20 0 20 -25l-4 -33 q-3 -20 -23 -20h-438q-19 0 -22 20l-5 33q-2 11 4.5 18t16.5 7q72 12 105.5 36.5t33.5 86.5h-309q-22 0 -29 20zM909 309h254v322z" />
<glyph unicode="&#xbd;" horiz-adv-x="1589" d="M82 1290q-3 21 14 29q97 52 199 141q20 17 39 17h82q20 -3 20 -23l-2 -559q0 -63 33 -92.5t102 -40.5q21 0 21 -25l-4 -32q-4 -21 -23 -21h-436q-19 0 -23 21l-4 32q-2 11 4.5 18t16.5 7q68 11 101.5 40.5t33.5 92.5v289q0 36 -21.5 53t-58.5 12l-59 -6q-23 -3 -29 19z M130 12q-5 12 3 21l1172 1417q20 27 49 27h88q12 0 17 -12t-3 -21l-1171 -1417q-23 -27 -49 -27h-89q-12 0 -17 12zM864 23v30q0 20 10 37q53 89 128 163.5t192 152.5q121 79 121 161q0 55 -33.5 85t-87.5 30q-32 0 -60.5 -9.5t-57 -32t-47.5 -41t-52 -52.5q-19 -22 -41 -4 l-33 30q-8 6 -8.5 17t6.5 22q76 99 156.5 153t189.5 54q117 0 185.5 -58t68.5 -159q0 -91 -65.5 -158.5t-196.5 -132.5q-108 -54 -205 -141l215 4q65 1 99 14.5t84 55.5q14 14 32 14h41q21 0 21 -18v-35q0 -20 -8 -31l-119 -158q-11 -16 -31 -16h-483q-9 0 -15 7t-6 16z" />
<glyph unicode="&#xbe;" horiz-adv-x="1589" d="M61 803q0 48 43 78l144 96q8 5 16 1.5t8 -13.5v-35q0 -23 -8 -35q-13 -19 -18 -42.5t-0.5 -47t30 -39.5t68.5 -16q83 0 146 60.5t63 137.5q0 65 -36.5 94.5t-97 26t-138.5 -17.5q-9 -1 -16 5t-7 15v47q0 9 6.5 16.5t16.5 8.5l41 8q80 17 126 57.5t46 89.5q0 43 -29.5 67 t-77.5 24q-94 0 -203 -105q-9 -9 -20 -8.5t-19 8.5l-26 31q-19 19 0 39q80 76 153.5 112.5t171.5 36.5q93 0 150 -42t57 -120q0 -57 -43.5 -106.5t-126.5 -81.5q118 19 188 -29.5t70 -148.5q0 -84 -62 -159t-157 -118t-192 -43q-131 0 -199 43.5t-68 104.5zM157 12 q-5 12 3 21l1171 1417q20 27 49 27h88q12 0 17.5 -12t-2.5 -21l-1172 -1417q-23 -27 -49 -27h-88q-12 0 -17 12zM797 301q-7 23 8 41l358 432q15 19 37 19h111q10 0 16 -7t6 -16v-461h144q22 0 22 -20v-68q0 -20 -22 -20h-144q0 -63 30.5 -87t102.5 -36q21 0 21 -25l-4 -33 q-3 -20 -23 -20h-438q-20 0 -23 20l-4 33q-2 11 4.5 18t16.5 7q72 12 105.5 36.5t33.5 86.5h-309q-22 0 -29 20zM903 309h254v322z" />
<glyph unicode="&#xbf;" horiz-adv-x="862" d="M72 -233q0 74 30.5 140t75.5 111t98.5 89.5t98.5 77t75.5 71.5t30.5 76t-18.5 58.5t-54.5 21.5q-39 0 -58 -27.5t-16 -75.5q1 -12 -6 -20t-19 -8h-61q-12 0 -20.5 8t-10.5 20q-7 100 47 158.5t152 58.5q89 0 144.5 -54.5t55.5 -141.5q0 -59 -22.5 -111.5t-56 -89.5 t-73 -78.5t-73 -78t-56 -87.5t-22.5 -108q0 -84 51 -134.5t130 -50.5t128.5 47.5t59.5 116.5q2 12 12 19t25 4l45 -8q24 -6 24 -35q3 -124 -96.5 -213.5t-267.5 -89.5q-154 0 -253 92t-99 242zM255 778q-1 25 19 45q49 59 115 113q20 20 45 20t47 -20q78 -72 111 -113 q20 -20 21 -45t-19 -47q-51 -58 -113 -113q-22 -20 -46.5 -19t-45.5 22q-68 64 -113 112q-20 20 -21 45z" />
<glyph unicode="&#xc0;" horiz-adv-x="1497" d="M12 78l4 -53q4 -25 29 -25h451q24 0 28 25l4 53q3 28 -24 31q-77 12 -100.5 47.5t-2.5 97.5l62 180h455l53 -180q43 -123 -103 -145q-27 -3 -24 -31l4 -53q4 -25 29 -25h575q25 0 29 25l4 53q3 28 -25 31q-78 12 -124 51t-74 114l-379 1180q-8 23 -31 23h-131 q-23 0 -31 -23l-440 -1180q-53 -141 -213 -165q-28 -3 -25 -31zM508 582l203 565l178 -565h-381zM550.5 1980.5q4.5 8.5 14.5 8.5h256q9 0 15 -6t6 -15l2 -369q0 -22 -23 -22h-53q-22 0 -29 18l-188 369q-5 8 -0.5 16.5z" />
<glyph unicode="&#xc1;" horiz-adv-x="1497" d="M12 78q-3 28 25 31q160 24 213 165l440 1180q8 23 31 23h131q23 0 31 -23l379 -1180q28 -75 74 -114t124 -51q28 -3 25 -31l-4 -53q-4 -25 -29 -25h-575q-25 0 -29 25l-4 53q-3 28 24 31q146 22 103 145l-53 180h-455l-62 -180q-21 -62 2.5 -97.5t100.5 -47.5 q27 -3 24 -31l-4 -53q-4 -25 -28 -25h-451q-25 0 -29 25zM508 582h381l-178 565zM721 1599l2 369q0 21 20 21h256q10 0 15 -8.5t0 -16.5l-189 -369q-7 -18 -28 -18h-54q-22 0 -22 22z" />
<glyph unicode="&#xc2;" horiz-adv-x="1497" d="M12 78l4 -53q4 -25 29 -25h451q24 0 28 25l4 53q3 28 -24 31q-77 12 -100.5 47.5t-2.5 97.5l62 180h455l53 -180q43 -123 -103 -145q-27 -3 -24 -31l4 -53q4 -25 29 -25h575q25 0 29 25l4 53q3 28 -25 31q-78 12 -124 51t-74 114l-379 1180q-8 23 -31 23h-131 q-23 0 -31 -23l-440 -1180q-53 -141 -213 -165q-28 -3 -25 -31zM500 1587.5q-6 8.5 0 18.5l166 362q10 21 32 21h160q22 0 33 -21l164 -362q6 -10 1 -18.5t-16 -8.5h-67q-24 0 -39 18l-154 211l-155 -209q-17 -20 -39 -20h-70q-10 0 -16 8.5zM508 582l203 565l178 -565h-381 z" />
<glyph unicode="&#xc3;" horiz-adv-x="1497" d="M12 78q-3 28 25 31q160 24 213 165l440 1180q8 23 31 23h131q23 0 31 -23l379 -1180q28 -75 74 -114t124 -51q28 -3 25 -31l-4 -53q-4 -25 -29 -25h-575q-25 0 -29 25l-4 53q-3 28 24 31q146 22 103 145l-53 180h-455l-62 -180q-21 -62 2.5 -97.5t100.5 -47.5 q27 -3 24 -31l-4 -53q-4 -25 -28 -25h-451q-25 0 -29 25zM438 1802q-4 26 13 37l38 23q10 6 21.5 2.5t15.5 -13.5q31 -75 90 -75q34 -1 63.5 11.5t53 30t48 35.5t58.5 30.5t74 12.5q86 0 137.5 -57t67.5 -153q4 -26 -12 -37l-39 -23q-10 -6 -21.5 -3t-15.5 13q-31 76 -90 76 q-28 1 -55 -11.5t-50 -30.5t-48.5 -36t-62 -30.5t-79.5 -12.5q-87 0 -139 57.5t-68 153.5zM508 582h381l-178 565z" />
<glyph unicode="&#xc4;" horiz-adv-x="1497" d="M12 78l4 -53q4 -25 29 -25h451q24 0 28 25l4 53q3 28 -24 31q-77 12 -100.5 47.5t-2.5 97.5l62 180h455l53 -180q43 -123 -103 -145q-27 -3 -24 -31l4 -53q4 -25 29 -25h575q25 0 29 25l4 53q3 28 -25 31q-78 12 -124 51t-74 114l-379 1180q-8 23 -31 23h-131 q-23 0 -31 -23l-440 -1180q-53 -141 -213 -165q-28 -3 -25 -31zM408 1806q70 75 104 103q45 38 86 0q21 -19 102 -105q19 -20 20 -45t-18 -45q-69 -74 -104 -104q-46 -37 -86 0q-41 33 -102 104q-39 46 -2 92zM508 582l203 565l178 -565h-381zM866 1806q52 59 105 103 q45 38 86 0q43 -38 102 -105q19 -20 20 -45t-18 -45q-48 -56 -104 -104q-46 -37 -86 0q-51 45 -103 104q-41 47 -2 92z" />
<glyph unicode="&#xc5;" horiz-adv-x="1497" d="M12 78l4 -53q4 -25 29 -25h451q24 0 28 25l4 53q3 28 -24 31q-77 12 -100.5 47.5t-2.5 97.5l62 180h455l53 -180q43 -123 -103 -145q-27 -3 -24 -31l4 -53q4 -25 29 -25h575q25 0 29 25l4 53q3 28 -25 31q-78 12 -124 51t-74 114l-379 1180q-8 23 -31 23h-131 q-23 0 -31 -23l-440 -1180q-53 -141 -213 -165q-28 -3 -25 -31zM508 582l203 565l178 -565h-381zM573 1776q0 88 62.5 147t152.5 59t153 -59t63 -147q0 -90 -62.5 -148.5t-153.5 -58.5q-90 0 -152.5 58.5t-62.5 148.5zM686 1776q0 -44 30 -73.5t72 -29.5t72.5 29.5 t30.5 73.5q0 42 -30.5 71t-72.5 29t-72 -29t-30 -71z" />
<glyph unicode="&#xc6;" horiz-adv-x="2035" d="M12 78q-3 28 25 31q83 13 152.5 64.5t113.5 143.5l512 1137q13 23 37 23h623q112 0 207 1.5t134 3.5l39 1q25 0 29 -25l4 -39q3 -24 -10 -43q-16 -23 -135 -200q-15 -23 -37 -23h-29q-20 0 -35 23q-18 27 -33.5 46.5t-46.5 50t-63 50t-80 34.5t-100 15h-21 q-114 0 -114 -100v-453h108q157 0 181 144q6 27 30 24l53 -4q25 -4 25 -29v-403q0 -25 -25 -29l-53 -4q-24 -3 -30 25q-23 141 -181 141h-88v-448q0 -55 31 -84t88 -29h12q90 0 164 18.5t127 46.5t105 79.5t87.5 98t84.5 121.5q15 21 39 21h49q24 0 24 -25v-43q0 -15 -8 -43 q-37 -108 -117 -379q-6 -22 -35 -22q-98 4 -329 4h-758q-25 0 -29 25l-4 53q-3 28 25 31q84 13 124 49.5t40 115.5v160h-408l-78 -174q-60 -131 72 -151q28 -3 25 -31l-7 -53q-4 -25 -28 -25h-455q-25 0 -29 25zM582 582h352v788z" />
<glyph unicode="&#xc7;" horiz-adv-x="1470" d="M72 743q0 115 29 227.5t87.5 211t139 174t190 119t234.5 43.5q86 0 173 -16t145.5 -32t74.5 -16q23 0 44 11.5t40 11.5h43q22 0 22 -23l4 -412q0 -12 -8 -20t-20 -8h-64q-27 0 -39 26q-68 167 -168.5 256.5t-255.5 89.5q-132 0 -227 -72t-139.5 -188t-44.5 -262 q0 -107 20.5 -208.5t63.5 -192.5t104 -159t148 -108t190 -40q338 0 485 393q10 24 35 14l70 -31q18 -11 10 -34q-24 -88 -62 -165.5t-94.5 -145.5t-126 -117.5t-160 -79t-192.5 -31.5l-108 -141q71 51 162 51q81 0 136.5 -49.5t55.5 -132.5q0 -95 -77 -155t-199 -60 q-78 0 -135 33t-89 71q-14 21 4 35l33 31q19 19 35 0q68 -64 139 -64q53 0 87 27.5t34 72.5q0 44 -29.5 69.5t-72.5 25.5q-48 0 -105 -37q-18 -12 -35 0l-28 22q-14 11 -8 29l65 180q-144 20 -261.5 90.5t-194.5 175.5t-118.5 236t-41.5 274z" />
<glyph unicode="&#xc8;" horiz-adv-x="1454" d="M63 78l5 -53q4 -25 28 -25h817l340 -4q29 0 35 22q4 14 49 163t68 216q8 28 8 43v43q0 25 -24 25h-50q-24 0 -39 -21q-48 -73 -85.5 -121.5t-90 -98.5t-107 -79t-129.5 -47t-165 -18h-66q-57 0 -87.5 29t-30.5 84v448h206q157 0 181 -141q6 -28 30 -25l54 4q24 3 24 29 v403q0 26 -24 29l-54 4q-24 3 -30 -24q-24 -144 -181 -144h-227v453q0 100 115 100h74q52 0 99.5 -15.5t76.5 -33t61 -51t43 -49t33 -47.5q15 -23 35 -23h28q22 0 37 23q119 177 135 200q14 20 11 43l-4 39q-4 25 -29 25q-129 -6 -381 -6h-756q-24 0 -28 -25l-5 -53 q-3 -28 25 -31q84 -13 124 -49.5t40 -116.5l2 -928q0 -79 -40.5 -115.5t-125.5 -49.5q-28 -3 -25 -31zM470.5 1980.5q4.5 8.5 14.5 8.5h256q9 0 15 -6t6 -15l2 -369q0 -22 -23 -22h-53q-22 0 -29 18l-188 369q-5 8 -0.5 16.5z" />
<glyph unicode="&#xc9;" horiz-adv-x="1454" d="M63 78q-3 28 25 31q85 13 125.5 49.5t40.5 115.5l-2 928q0 80 -40 116.5t-124 49.5q-28 3 -25 31l5 53q4 25 28 25h756q112 0 207 1.5t135 3.5l39 1q25 0 29 -25l4 -39q3 -23 -11 -43q-16 -23 -135 -200q-15 -23 -37 -23h-28q-20 0 -35 23q-22 32 -33 47.5t-43 49t-61 51 t-76.5 33t-99.5 15.5h-74q-115 0 -115 -100v-453h227q157 0 181 144q6 27 30 24l54 -4q24 -3 24 -29v-403q0 -26 -24 -29l-54 -4q-24 -3 -30 25q-24 141 -181 141h-206v-448q0 -55 30.5 -84t87.5 -29h66q90 0 165 18t129.5 47t107 79t90 98.5t85.5 121.5q15 21 39 21h50 q24 0 24 -25v-43q0 -15 -8 -43q-23 -67 -68 -216t-49 -163q-6 -22 -35 -22q-109 4 -340 4h-817q-24 0 -28 25zM621 1599l2 369q0 21 20 21h256q10 0 14.5 -8.5t-0.5 -16.5l-188 -369q-7 -18 -29 -18h-53q-22 0 -22 22z" />
<glyph unicode="&#xca;" horiz-adv-x="1454" d="M63 78l5 -53q4 -25 28 -25h817l340 -4q29 0 35 22q4 14 49 163t68 216q8 28 8 43v43q0 25 -24 25h-50q-24 0 -39 -21q-48 -73 -85.5 -121.5t-90 -98.5t-107 -79t-129.5 -47t-165 -18h-66q-57 0 -87.5 29t-30.5 84v448h206q157 0 181 -141q6 -28 30 -25l54 4q24 3 24 29 v403q0 26 -24 29l-54 4q-24 3 -30 -24q-24 -144 -181 -144h-227v453q0 100 115 100h74q52 0 99.5 -15.5t76.5 -33t61 -51t43 -49t33 -47.5q15 -23 35 -23h28q22 0 37 23q119 177 135 200q14 20 11 43l-4 39q-4 25 -29 25q-129 -6 -381 -6h-756q-24 0 -28 -25l-5 -53 q-3 -28 25 -31q84 -13 124 -49.5t40 -116.5l2 -928q0 -79 -40.5 -115.5t-125.5 -49.5q-28 -3 -25 -31zM418 1587.5q-6 8.5 0 18.5l166 362q10 21 32 21h160q22 0 33 -21l164 -362q6 -10 1 -18.5t-16 -8.5h-67q-24 0 -39 18l-154 211l-155 -209q-17 -20 -39 -20h-70 q-10 0 -16 8.5z" />
<glyph unicode="&#xcb;" horiz-adv-x="1454" d="M63 78l5 -53q4 -25 28 -25h817l340 -4q29 0 35 22q4 14 49 163t68 216q8 28 8 43v43q0 25 -24 25h-50q-24 0 -39 -21q-48 -73 -85.5 -121.5t-90 -98.5t-107 -79t-129.5 -47t-165 -18h-66q-57 0 -87.5 29t-30.5 84v448h206q157 0 181 -141q6 -28 30 -25l54 4q24 3 24 29 v403q0 26 -24 29l-54 4q-24 3 -30 -24q-24 -144 -181 -144h-227v453q0 100 115 100h74q52 0 99.5 -15.5t76.5 -33t61 -51t43 -49t33 -47.5q15 -23 35 -23h28q22 0 37 23q119 177 135 200q14 20 11 43l-4 39q-4 25 -29 25q-129 -6 -381 -6h-756q-24 0 -28 -25l-5 -53 q-3 -28 25 -31q84 -13 124 -49.5t40 -116.5l2 -928q0 -79 -40.5 -115.5t-125.5 -49.5q-28 -3 -25 -31zM315 1806q67 72 105 103q45 38 86 0q21 -19 102 -105q19 -20 20 -45t-18 -45q-69 -74 -104 -104q-46 -37 -86 0q-44 35 -103 104q-39 46 -2 92zM774 1806q52 59 105 103 q45 38 86 0q43 -38 102 -105q19 -20 20 -45t-18 -45q-48 -56 -104 -104q-46 -37 -86 0q-51 45 -103 104q-41 47 -2 92z" />
<glyph unicode="&#xcc;" horiz-adv-x="811" d="M74 78l4 -53q4 -25 28 -25h599q24 0 28 25l4 53q3 28 -24 31q-86 13 -128 49.5t-42 115.5l-2 928q0 79 43 116t129 50q27 3 24 31l-4 53q-4 25 -28 25h-599q-24 0 -28 -25l-4 -53q-3 -28 24 -31q85 -13 127.5 -50t42.5 -116l2 -928q0 -79 -43 -115.5t-129 -49.5 q-27 -3 -24 -31zM165.5 1980.5q4.5 8.5 14.5 8.5h256q9 0 15 -6t6 -15l2 -369q0 -22 -23 -22h-53q-22 0 -29 18l-188 369q-5 8 -0.5 16.5z" />
<glyph unicode="&#xcd;" horiz-adv-x="811" d="M74 78q-3 28 24 31q86 13 129 49.5t43 115.5l-2 928q0 79 -42.5 116t-127.5 50q-27 3 -24 31l4 53q4 25 28 25h599q24 0 28 -25l4 -53q3 -28 -24 -31q-86 -13 -129 -50t-43 -116l2 -928q0 -79 42 -115.5t128 -49.5q27 -3 24 -31l-4 -53q-4 -25 -28 -25h-599q-24 0 -28 25 zM358 1599l2 369q0 9 6 15t15 6h256q10 0 14.5 -8.5t-0.5 -16.5l-188 -369q-7 -18 -29 -18h-53q-23 0 -23 22z" />
<glyph unicode="&#xce;" horiz-adv-x="811" d="M74 78l4 -53q4 -25 28 -25h599q24 0 28 25l4 53q3 28 -24 31q-86 13 -128 49.5t-42 115.5l-2 928q0 79 43 116t129 50q27 3 24 31l-4 53q-4 25 -28 25h-599q-24 0 -28 -25l-4 -53q-3 -28 24 -31q85 -13 127.5 -50t42.5 -116l2 -928q0 -79 -43 -115.5t-129 -49.5 q-27 -3 -24 -31zM127 1587.5q-6 8.5 0 18.5l166 362q11 21 33 21h159q23 0 33 -21l164 -362q6 -10 1.5 -18.5t-15.5 -8.5h-68q-24 0 -39 18l-153 211l-156 -209q-17 -20 -39 -20h-70q-10 0 -16 8.5z" />
<glyph unicode="&#xcf;" horiz-adv-x="811" d="M29 1806q70 75 104 103q45 38 86 0q27 -24 103 -105q19 -20 20 -45t-18 -45q-65 -69 -105 -104q-46 -37 -86 0q-41 33 -102 104q-39 46 -2 92zM74 78l4 -53q4 -25 28 -25h599q24 0 28 25l4 53q3 28 -24 31q-86 13 -128 49.5t-42 115.5l-2 928q0 79 43 116t129 50 q27 3 24 31l-4 53q-4 25 -28 25h-599q-24 0 -28 -25l-4 -53q-3 -28 24 -31q85 -13 127.5 -50t42.5 -116l2 -928q0 -79 -43 -115.5t-129 -49.5q-27 -3 -24 -31zM487 1806q52 59 105 103q45 38 86 0q43 -38 102 -105q19 -20 20 -45t-18 -45q-48 -56 -104 -104q-46 -37 -86 0 q-51 45 -103 104q-41 47 -2 92z" />
<glyph unicode="&#xd0;" horiz-adv-x="1564" d="M63 78q-3 28 25 31q85 13 125.5 49.5t40.5 115.5l-2 412h-154q-12 0 -20 7.5t-8 19.5v82q0 12 8 19t20 7h154v381q0 80 -40 116.5t-124 49.5q-28 3 -25 31l5 53q4 25 28 25h543q127 0 251 -36t233.5 -109t194 -173.5t133.5 -238.5t50 -295q1 -131 -37 -236t-105 -177 t-161.5 -120t-204 -70t-235.5 -22h-662q-24 0 -28 25zM516 686l2 -450q0 -48 32.5 -81.5t84.5 -33.5h117q220 0 349.5 129.5t129.5 372.5q0 212 -71.5 378t-208.5 261.5t-318 95.5q-53 0 -85 -32.5t-32 -78.5v-426h281q12 0 20 -7t8 -19v-82q0 -12 -8 -19.5t-20 -7.5h-281z " />
<glyph unicode="&#xd1;" horiz-adv-x="1798" d="M63 78q-3 28 25 31q85 13 125.5 49.5t40.5 115.5l-2 922q0 80 -40.5 119.5t-123.5 52.5q-28 3 -25 31l5 53q4 25 28 25h391q20 0 37 -17l910 -995l-2 737q0 80 -40 116.5t-124 49.5q-28 3 -25 31l4 53q4 25 29 25h467q25 0 29 -25l4 -53q3 -28 -25 -31 q-85 -13 -125.5 -50t-40.5 -116l2 -1177q0 -11 -8 -18t-20 -7h-74q-19 0 -37 18l-1042 1149l2 -893q0 -80 39.5 -116t123.5 -49q28 -3 25 -31l-4 -53q-4 -25 -29 -25h-467q-24 0 -28 25zM580 1802q-4 26 12 37l39 23q10 6 21.5 2.5t15.5 -13.5q31 -75 90 -75 q34 -1 63.5 11.5t53 30t48 35.5t58.5 30.5t74 12.5q86 0 137.5 -57t67.5 -153q4 -26 -13 -37l-39 -23q-10 -6 -21.5 -3t-15.5 13q-31 76 -90 76q-28 1 -55 -11.5t-50 -30.5t-48.5 -36t-62 -30.5t-79.5 -12.5q-87 0 -138.5 57.5t-67.5 153.5z" />
<glyph unicode="&#xd2;" horiz-adv-x="1728" d="M72 727q0 -162 63 -305.5t169.5 -244.5t251.5 -159.5t304 -58.5q214 0 396 100t291.5 282t109.5 407q0 215 -110.5 393t-294 277.5t-396.5 99.5t-392.5 -102t-285.5 -284t-106 -405zM340 846q0 235 122.5 374.5t340.5 139.5q116 0 221 -50.5t183.5 -141t124.5 -225 t46 -292.5q0 -235 -122.5 -374.5t-340.5 -139.5q-116 0 -221 50.5t-183.5 141t-124.5 225t-46 292.5zM595.5 1980.5q4.5 8.5 14.5 8.5h256q9 0 15 -6t6 -15l2 -369q0 -22 -23 -22h-53q-22 0 -29 18l-188 369q-5 8 -0.5 16.5z" />
<glyph unicode="&#xd3;" horiz-adv-x="1728" d="M72 727q0 223 106 405t285.5 284t392.5 102t396.5 -99.5t294 -277.5t110.5 -393q0 -225 -109.5 -407t-291.5 -282t-396 -100q-159 0 -304 58.5t-251.5 159.5t-169.5 244.5t-63 305.5zM340 846q0 -158 46 -292.5t124.5 -225t183.5 -141t221 -50.5q218 0 340.5 139.5 t122.5 374.5q0 158 -46 292.5t-124.5 225t-183.5 141t-221 50.5q-218 0 -340.5 -139.5t-122.5 -374.5zM799 1599l2 369q0 21 20 21h256q10 0 15 -8.5t0 -16.5l-189 -369q-7 -18 -29 -18h-53q-22 0 -22 22z" />
<glyph unicode="&#xd4;" horiz-adv-x="1728" d="M72 727q0 -162 63 -305.5t169.5 -244.5t251.5 -159.5t304 -58.5q214 0 396 100t291.5 282t109.5 407q0 215 -110.5 393t-294 277.5t-396.5 99.5t-392.5 -102t-285.5 -284t-106 -405zM340 846q0 235 122.5 374.5t340.5 139.5q116 0 221 -50.5t183.5 -141t124.5 -225 t46 -292.5q0 -235 -122.5 -374.5t-340.5 -139.5q-116 0 -221 50.5t-183.5 141t-124.5 225t-46 292.5zM586 1587.5q-6 8.5 0 18.5l166 362q10 21 32 21h160q22 0 33 -21l164 -362q6 -10 1 -18.5t-16 -8.5h-67q-24 0 -39 18l-154 211l-155 -209q-17 -20 -39 -20h-70 q-10 0 -16 8.5z" />
<glyph unicode="&#xd5;" horiz-adv-x="1728" d="M72 727q0 223 106 405t285.5 284t392.5 102t396.5 -99.5t294 -277.5t110.5 -393q0 -225 -109.5 -407t-291.5 -282t-396 -100q-159 0 -304 58.5t-251.5 159.5t-169.5 244.5t-63 305.5zM340 846q0 -158 46 -292.5t124.5 -225t183.5 -141t221 -50.5q218 0 340.5 139.5 t122.5 374.5q0 158 -46 292.5t-124.5 225t-183.5 141t-221 50.5q-218 0 -340.5 -139.5t-122.5 -374.5zM524 1802q-4 26 13 37l38 23q10 6 21.5 2.5t15.5 -13.5q31 -75 90 -75q34 -1 63.5 11.5t53 30t48 35.5t58.5 30.5t74 12.5q86 0 137.5 -57t67.5 -153q4 -26 -12 -37 l-39 -23q-10 -6 -21.5 -3t-15.5 13q-31 76 -90 76q-28 1 -55 -11.5t-50 -30.5t-48.5 -36t-62 -30.5t-79.5 -12.5q-87 0 -139 57.5t-68 153.5z" />
<glyph unicode="&#xd6;" horiz-adv-x="1728" d="M72 727q0 -162 63 -305.5t169.5 -244.5t251.5 -159.5t304 -58.5q214 0 396 100t291.5 282t109.5 407q0 215 -110.5 393t-294 277.5t-396.5 99.5t-392.5 -102t-285.5 -284t-106 -405zM340 846q0 235 122.5 374.5t340.5 139.5q116 0 221 -50.5t183.5 -141t124.5 -225 t46 -292.5q0 -235 -122.5 -374.5t-340.5 -139.5q-116 0 -221 50.5t-183.5 141t-124.5 225t-46 292.5zM487 1806q67 72 105 103q45 38 86 0q21 -19 102 -105q19 -20 20 -45t-18 -45q-69 -74 -104 -104q-46 -37 -86 0q-44 35 -103 104q-39 46 -2 92zM946 1806q52 59 105 103 q45 38 86 0q43 -38 102 -105q19 -20 20 -45t-18 -45q-48 -56 -104 -104q-46 -37 -86 0q-51 45 -103 104q-41 47 -2 92z" />
<glyph unicode="&#xd7;" d="M117 123q-19 16 0 39l518 518l-518 520q-19 23 0 39l63 66q20 17 39 -2l518 -521l523 523q22 19 38 0l66 -64q17 -20 -2 -39l-522 -522l522 -520q19 -19 2 -39l-66 -64q-16 -19 -38 0l-523 521l-518 -519q-19 -19 -39 -2z" />
<glyph unicode="&#xd8;" horiz-adv-x="1728" d="M72 727q0 223 106 405t285.5 284t392.5 102q270 0 481 -150l78 86q20 23 47 23h127q12 0 17.5 -12t-2.5 -21l-160 -170q101 -104 157 -239t56 -287q0 -225 -109.5 -407t-291.5 -282t-396 -100q-258 0 -467 147l-74 -81q-21 -25 -49 -25h-129q-12 0 -17 12t3 21l158 164 q-101 104 -157 239.5t-56 290.5zM340 846q0 -263 121 -449l14 21l694 768l11 8q-77 79 -174.5 122.5t-202.5 43.5q-218 0 -340.5 -139.5t-122.5 -374.5zM551 289q158 -152 364 -152q218 0 340.5 139.5t122.5 374.5q0 245 -108 428l-8 -10l-699 -768z" />
<glyph unicode="&#xd9;" horiz-adv-x="1609" d="M53 1399q-3 -28 25 -31q84 -13 124 -49.5t40 -116.5v-743q0 -157 75 -269t201 -166.5t289 -54.5q164 0 288.5 52t198.5 161.5t74 266.5v753q0 80 40 116.5t124 49.5q27 3 24 31l-4 53q-4 25 -28 25h-447q-24 0 -28 -25l-5 -53q-3 -28 25 -31q84 -13 124 -49.5t40 -116.5 v-758q0 -143 -97.5 -234t-265.5 -91q-160 0 -261 87.5t-101 239.5v756q0 80 40 116.5t124 49.5q27 3 24 31l-4 53q-4 25 -28 25h-578q-25 0 -29 -25zM624.5 1980.5q4.5 8.5 14.5 8.5h256q20 0 20 -21l3 -369q0 -22 -23 -22h-53q-22 0 -29 18l-188 369q-5 8 -0.5 16.5z" />
<glyph unicode="&#xda;" horiz-adv-x="1609" d="M53 1399l4 53q4 25 29 25h578q24 0 28 -25l4 -53q3 -28 -24 -31q-84 -13 -124 -49.5t-40 -116.5v-756q0 -152 101 -239.5t261 -87.5q168 0 265.5 91t97.5 234v758q0 80 -40 116.5t-124 49.5q-28 3 -25 31l5 53q4 25 28 25h447q24 0 28 -25l4 -53q3 -28 -24 -31 q-84 -13 -124 -49.5t-40 -116.5v-753q0 -157 -74 -266.5t-198.5 -161.5t-288.5 -52q-163 0 -289 54.5t-201 166.5t-75 269v743q0 80 -40 116.5t-124 49.5q-28 3 -25 31zM834 1599l2 369q0 21 20 21h256q10 0 14.5 -8.5t-0.5 -16.5l-188 -369q-7 -18 -29 -18h-53 q-22 0 -22 22z" />
<glyph unicode="&#xdb;" horiz-adv-x="1609" d="M53 1399q-3 -28 25 -31q84 -13 124 -49.5t40 -116.5v-743q0 -157 75 -269t201 -166.5t289 -54.5q164 0 288.5 52t198.5 161.5t74 266.5v753q0 80 40 116.5t124 49.5q27 3 24 31l-4 53q-4 25 -28 25h-447q-24 0 -28 -25l-5 -53q-3 -28 25 -31q84 -13 124 -49.5t40 -116.5 v-758q0 -143 -97.5 -234t-265.5 -91q-160 0 -261 87.5t-101 239.5v756q0 80 40 116.5t124 49.5q27 3 24 31l-4 53q-4 25 -28 25h-578q-25 0 -29 -25zM600 1587.5q-6 8.5 0 18.5l166 362q10 21 33 21h159q22 0 33 -21l164 -362q6 -10 1.5 -18.5t-15.5 -8.5h-68q-24 0 -39 18 l-153 211l-156 -209q-17 -20 -39 -20h-70q-10 0 -16 8.5z" />
<glyph unicode="&#xdc;" horiz-adv-x="1609" d="M53 1399q-3 -28 25 -31q84 -13 124 -49.5t40 -116.5v-743q0 -157 75 -269t201 -166.5t289 -54.5q164 0 288.5 52t198.5 161.5t74 266.5v753q0 80 40 116.5t124 49.5q27 3 24 31l-4 53q-4 25 -28 25h-447q-24 0 -28 -25l-5 -53q-3 -28 25 -31q84 -13 124 -49.5t40 -116.5 v-758q0 -143 -97.5 -234t-265.5 -91q-160 0 -261 87.5t-101 239.5v756q0 80 40 116.5t124 49.5q27 3 24 31l-4 53q-4 25 -28 25h-578q-25 0 -29 -25zM494 1806q70 75 104 103q45 38 86 0q21 -19 102 -105q19 -20 20 -45t-18 -45q-69 -74 -104 -104q-46 -37 -86 0 q-41 33 -102 104q-39 46 -2 92zM952 1806q52 59 105 103q45 38 86 0q43 -38 102 -105q19 -20 20 -45t-18 -45q-48 -56 -104 -104q-46 -37 -86 0q-51 45 -103 104q-41 47 -2 92z" />
<glyph unicode="&#xdd;" horiz-adv-x="1361" d="M12 1399l4 53q4 25 29 25h557q25 0 29 -25l4 -53q3 -28 -25 -31q-76 -12 -94 -53t19 -92l215 -371l200 371q32 54 12 93.5t-96 51.5q-27 3 -24 31l4 53q4 25 28 25h443q25 0 29 -25l4 -53q3 -28 -25 -31q-152 -23 -233 -166l-256 -450l2 -478q0 -79 40.5 -115.5 t125.5 -49.5q27 -3 24 -31l-4 -53q-4 -25 -29 -25h-592q-24 0 -28 25l-4 53q-3 28 24 31q85 13 125.5 49.5t40.5 115.5v435l-325 493q-90 144 -199 166q-28 6 -25 31zM686 1599l2 369q0 9 6 15t15 6h256q10 0 14.5 -8.5t-0.5 -16.5l-188 -369q-7 -18 -29 -18h-53 q-23 0 -23 22z" />
<glyph unicode="&#xde;" horiz-adv-x="1341" d="M63 78q-3 28 25 31q89 13 137.5 50.5t48.5 114.5v928q0 78 -48.5 115.5t-137.5 50.5q-28 3 -25 31l5 53q4 25 28 25h660q24 0 28 -25l4 -53q3 -28 -24 -31q-205 -31 -205 -166v-22h211q118 0 217 -25.5t174 -75.5t117.5 -129.5t42.5 -181.5q0 -103 -44 -185.5 t-119.5 -135t-173 -80t-208.5 -27.5h-217v-66q0 -76 56 -113.5t149 -51.5q27 -3 24 -31l-4 -53q-4 -25 -28 -25h-660q-24 0 -28 25zM539 477h184q145 0 237.5 72.5t92.5 218.5q0 76 -29.5 136t-78 95t-104.5 52.5t-116 17.5h-51q-62 0 -98.5 -33t-36.5 -88v-471z" />
<glyph unicode="&#xdf;" horiz-adv-x="1236" d="M33 68q-3 27 24 30q81 12 114.5 48t33.5 118l-2 318q0 96 -32 150.5t-93 82.5q-27 13 -27 35v57q0 11 8.5 19t20.5 8h123q0 90 21 179.5t63 169t100 140.5t137 97t168 36q101 0 172.5 -56t71.5 -138q0 -81 -82 -121l-162 -74q-9 -5 -19.5 1t-10.5 16v39q0 25 14 49 q34 57 13 108.5t-85 51.5q-73 0 -119.5 -65t-46.5 -187v-246l13 -277l174 256q17 21 37 21h448q12 0 20.5 -8t8.5 -19v-57q0 -19 -15 -43l-219 -305l62 -29q100 -45 154.5 -120t54.5 -173q0 -113 -70.5 -235.5t-177.5 -217.5t-241 -157t-253 -62q-78 0 -145 31 q-44 22 -50.5 67.5t27.5 80.5l119 123q22 18 41 18h39q24 0 39 -18q32 -42 67 -62t84 -20q124 0 218 88.5t94 218.5q0 67 -39.5 126.5t-118.5 94.5l-92 41q-21 11 -21 35v30q0 22 11 39l225 336h-287l-194 -223v-250q0 -82 31.5 -118t111.5 -48q27 -3 24 -30l-4 -43 q-4 -25 -28 -25h-520q-25 0 -29 25z" />
<glyph unicode="&#xe0;" horiz-adv-x="1030" d="M33 201q0 -96 62 -158.5t161 -62.5q165 0 317 145q21 -66 68.5 -102.5t118.5 -36.5t136.5 28t107.5 68q18 18 14 43l-8 57q-1 12 -13 15.5t-22 -2.5q-60 -29 -111 -29q-32 0 -49.5 18.5t-17.5 48.5l6 515q0 200 -213 200q-221 0 -410 -114q-22 -14 -12 -37l22 -49 q6 -12 17.5 -15.5t23.5 2.5q128 64 238 64q41 0 62.5 -22t21.5 -62l-2 -142q-124 -34 -229 -75q-131 -49 -210 -123t-79 -174zM266 256q0 76 96 135q85 51 197 90l-2 -233q-101 -90 -190 -90q-46 0 -73.5 27t-27.5 71zM330.5 1527q3.5 9 13.5 9h246q20 0 20 -20l2 -424 q0 -21 -20 -21h-53q-19 0 -29 19l-178 421q-5 7 -1.5 16z" />
<glyph unicode="&#xe1;" horiz-adv-x="1030" d="M33 201q0 100 79 174t210 123q105 41 229 75l2 142q0 40 -21.5 62t-62.5 22q-110 0 -238 -64q-12 -6 -23.5 -2.5t-17.5 15.5l-22 49q-10 23 12 37q189 114 410 114q213 0 213 -200l-6 -515q0 -30 17.5 -48.5t49.5 -18.5q51 0 111 29q10 6 22 2.5t13 -15.5l8 -57 q4 -25 -14 -43q-42 -40 -107.5 -68t-136.5 -28t-118.5 36.5t-68.5 102.5q-152 -145 -317 -145q-99 0 -161 62.5t-62 158.5zM266 256q0 -44 27.5 -71t73.5 -27q89 0 190 90l2 233q-112 -39 -197 -90q-96 -59 -96 -135zM451 1092l2 424q0 20 20 20h246q10 0 13.5 -9t-1.5 -16 l-178 -421q-9 -19 -29 -19h-53q-20 0 -20 21z" />
<glyph unicode="&#xe2;" horiz-adv-x="1030" d="M33 201q0 -96 62 -158.5t161 -62.5q165 0 317 145q21 -66 68.5 -102.5t118.5 -36.5t136.5 28t107.5 68q18 18 14 43l-8 57q-1 12 -13 15.5t-22 -2.5q-60 -29 -111 -29q-32 0 -49.5 18.5t-17.5 48.5l6 515q0 200 -213 200q-221 0 -410 -114q-22 -14 -12 -37l22 -49 q6 -12 17.5 -15.5t23.5 2.5q128 64 238 64q41 0 62.5 -22t21.5 -62l-2 -142q-124 -34 -229 -75q-131 -49 -210 -123t-79 -174zM199 1098l209 418q10 20 30 20h137q21 0 31 -20l207 -418q5 -9 -0.5 -18t-15.5 -9h-68q-20 0 -37 21l-186 235l-182 -235q-17 -21 -37 -21h-72 q-10 0 -15.5 9t-0.5 18zM266 256q0 76 96 135q85 51 197 90l-2 -233q-101 -90 -190 -90q-46 0 -73.5 27t-27.5 71z" />
<glyph unicode="&#xe3;" horiz-adv-x="1030" d="M33 201q0 100 79 174t210 123q105 41 229 75l2 142q0 40 -21.5 62t-62.5 22q-110 0 -238 -64q-12 -6 -23.5 -2.5t-17.5 15.5l-22 49q-10 23 12 37q189 114 410 114q213 0 213 -200l-6 -515q0 -30 17.5 -48.5t49.5 -18.5q51 0 111 29q10 6 22 2.5t13 -15.5l8 -57 q4 -25 -14 -43q-42 -40 -107.5 -68t-136.5 -28t-118.5 36.5t-68.5 102.5q-152 -145 -317 -145q-99 0 -161 62.5t-62 158.5zM168 1378q0 30 16 39l41 23q10 6 21 2.5t14 -15.5q12 -47 40 -75.5t67 -28.5q35 -1 66.5 12.5t56.5 33t50.5 39t60.5 33t75 13.5q89 0 147 -74.5 t64 -185.5q0 -26 -17 -37l-41 -24q-10 -6 -21.5 -2t-12.5 14q-9 48 -36.5 76t-68.5 28q-30 0 -59 -13.5t-55 -32.5t-54 -37.5t-66 -32t-81 -13.5q-90 0 -145.5 73t-61.5 185zM266 256q0 -44 27.5 -71t73.5 -27q89 0 190 90l2 233q-112 -39 -197 -90q-96 -59 -96 -135z" />
<glyph unicode="&#xe4;" horiz-adv-x="1030" d="M33 201q0 -96 62 -158.5t161 -62.5q165 0 317 145q21 -66 68.5 -102.5t118.5 -36.5t136.5 28t107.5 68q18 18 14 43l-8 57q-1 12 -13 15.5t-22 -2.5q-60 -29 -111 -29q-32 0 -49.5 18.5t-17.5 48.5l6 515q0 200 -213 200q-221 0 -410 -114q-22 -14 -12 -37l22 -49 q6 -12 17.5 -15.5t23.5 2.5q128 64 238 64q41 0 62.5 -22t21.5 -62l-2 -142q-124 -34 -229 -75q-131 -49 -210 -123t-79 -174zM154 1354q46 53 106 106q20 19 44 18.5t44 -20.5q67 -62 105 -106q17 -21 18 -45t-16 -45q-55 -59 -107 -107q-46 -39 -88 0q-33 31 -104 107 q-41 47 -2 92zM266 256q0 76 96 135q85 51 197 90l-2 -233q-101 -90 -190 -90q-46 0 -73.5 27t-27.5 71zM578 1354q46 53 106 106q20 19 44 18.5t44 -20.5q67 -62 105 -106q17 -21 18 -45t-16 -45q-55 -59 -107 -107q-46 -39 -88 0q-33 31 -104 107q-41 47 -2 92z" />
<glyph unicode="&#xe5;" horiz-adv-x="1030" d="M33 201q0 -96 62 -158.5t161 -62.5q165 0 317 145q21 -66 68.5 -102.5t118.5 -36.5t136.5 28t107.5 68q18 18 14 43l-8 57q-1 12 -13 15.5t-22 -2.5q-60 -29 -111 -29q-32 0 -49.5 18.5t-17.5 48.5l6 515q0 200 -213 200q-221 0 -410 -114q-22 -14 -12 -37l22 -49 q6 -12 17.5 -15.5t23.5 2.5q128 64 238 64q41 0 62.5 -22t21.5 -62l-2 -142q-124 -34 -229 -75q-131 -49 -210 -123t-79 -174zM256 1313q0 98 70 163.5t170 65.5t169.5 -65.5t69.5 -163.5q0 -99 -69.5 -164.5t-169.5 -65.5t-170 66t-70 164zM266 256q0 76 96 135 q85 51 197 90l-2 -233q-101 -90 -190 -90q-46 0 -73.5 27t-27.5 71zM369 1313q0 -54 37.5 -89.5t89.5 -35.5t89.5 35.5t37.5 89.5q0 53 -37.5 89t-89.5 36t-89.5 -36t-37.5 -89z" />
<glyph unicode="&#xe6;" horiz-adv-x="1458" d="M33 201q0 100 79 174t210 123q105 41 229 75l2 142q0 40 -21.5 62t-62.5 22q-110 0 -238 -64q-12 -6 -23.5 -2.5t-17.5 15.5l-22 49q-10 23 12 37q99 60 191 87t207 27q113 0 161 -86q118 103 279 103q72 0 131 -23t97.5 -62t63.5 -84.5t38 -97.5q4 -16 4 -32v-29 q0 -24 -21 -31l-530 -200q33 -105 114 -163t203 -57q68 1 129.5 32.5t106.5 86.5q19 23 43 8l28 -20q20 -17 9 -39q-22 -53 -57.5 -101t-85.5 -90t-119 -67.5t-148 -26.5q-124 0 -218.5 56t-152.5 153q-185 -198 -397 -198q-99 0 -161 62.5t-62 158.5zM266 256 q0 -44 27.5 -71t73.5 -27q89 0 190 90l2 233q-125 -47 -197 -90q-96 -59 -96 -135zM777 669.5q-10 -73.5 11 -161.5l316 143q14 79 -25 134t-116 55q-76 0 -126 -48.5t-60 -122z" />
<glyph unicode="&#xe7;" horiz-adv-x="954" d="M57 465q0 222 137.5 361t346.5 139q161 0 254 -84q53 -43 59 -101.5t-45 -101.5l-70 -55q-19 -15 -39 -15h-20q-21 0 -27 21q-29 100 -70.5 152.5t-121.5 52.5q-81 0 -129.5 -67.5t-48.5 -170.5q0 -182 90.5 -295t251.5 -113q144 0 235 111q19 23 43 8l29 -20 q19 -16 8 -39q-22 -53 -57.5 -100.5t-85.5 -88.5t-119 -65.5t-148 -24.5h-10l-117 -151q71 51 162 51q81 0 137 -49.5t56 -132.5q0 -95 -77.5 -155t-199.5 -60q-78 0 -134.5 32.5t-88.5 71.5q-14 21 4 35l33 31q19 19 35 0q68 -64 139 -64q53 0 87 27.5t34 72.5 q0 44 -30 69.5t-73 25.5q-47 0 -104 -37q-17 -12 -35 0l-29 22q-14 11 -8 29l76 203q-151 45 -240.5 175.5t-89.5 299.5z" />
<glyph unicode="&#xe8;" horiz-adv-x="962" d="M61 463q0 -132 57.5 -245t166 -181.5t243.5 -67.5q79 1 148 26.5t119 67.5t85.5 90t57.5 101q11 23 -8 39l-29 20q-24 15 -43 -8q-44 -54 -109.5 -87t-134.5 -34q-116 -3 -195 57t-112 165l529 200q20 7 20 31v29q0 16 -4 32q-13 52 -38 97.5t-63.5 84.5t-97.5 62 t-131 23q-201 0 -331 -144t-130 -358zM282 670q10 74 59.5 123t125.5 49q77 0 116 -56t25 -135l-315 -143q-21 88 -11 162zM283.5 1527q3.5 9 13.5 9h246q20 0 20 -20l2 -424q0 -21 -20 -21h-53q-20 0 -29 19l-178 421q-5 7 -1.5 16z" />
<glyph unicode="&#xe9;" horiz-adv-x="962" d="M61 463q0 214 130 358t331 144q72 0 131 -23t97.5 -62t63.5 -84.5t38 -97.5q4 -16 4 -32v-29q0 -24 -20 -31l-529 -200q33 -105 112 -165t195 -57q69 1 134.5 34t109.5 87q19 23 43 8l29 -20q19 -16 8 -39q-22 -53 -57.5 -101t-85.5 -90t-119 -67.5t-148 -26.5 q-135 -1 -243.5 67.5t-166 181.5t-57.5 245zM282 670q-10 -74 11 -162l315 143q14 79 -25 135t-116 56q-76 0 -125.5 -49t-59.5 -123zM438 1092l2 424q0 20 21 20h246q10 0 13.5 -9t-1.5 -16l-178 -421q-9 -19 -29 -19h-53q-9 0 -15 6t-6 15z" />
<glyph unicode="&#xea;" horiz-adv-x="962" d="M61 463q0 -132 57.5 -245t166 -181.5t243.5 -67.5q79 1 148 26.5t119 67.5t85.5 90t57.5 101q11 23 -8 39l-29 20q-24 15 -43 -8q-44 -54 -109.5 -87t-134.5 -34q-116 -3 -195 57t-112 165l529 200q20 7 20 31v29q0 16 -4 32q-13 52 -38 97.5t-63.5 84.5t-97.5 62 t-131 23q-201 0 -331 -144t-130 -358zM178 1098l209 418q10 20 31 20h137q21 0 31 -20l207 -418q5 -9 -1 -18t-16 -9h-67q-20 0 -37 21l-187 235l-182 -235q-17 -21 -37 -21h-71q-10 0 -16 9t-1 18zM282 670q10 74 59.5 123t125.5 49q77 0 116 -56t25 -135l-315 -143 q-21 88 -11 162z" />
<glyph unicode="&#xeb;" horiz-adv-x="962" d="M61 463q0 -132 57.5 -245t166 -181.5t243.5 -67.5q79 1 148 26.5t119 67.5t85.5 90t57.5 101q11 23 -8 39l-29 20q-24 15 -43 -8q-44 -54 -109.5 -87t-134.5 -34q-116 -3 -195 57t-112 165l529 200q20 7 20 31v29q0 16 -4 32q-13 52 -38 97.5t-63.5 84.5t-97.5 62 t-131 23q-201 0 -331 -144t-130 -358zM125 1354q46 53 106 106q20 19 44 18.5t44 -20.5q67 -62 105 -106q17 -21 18 -45t-16 -45q-55 -59 -107 -107q-46 -39 -88 0q-33 31 -104 107q-41 47 -2 92zM282 670q10 74 59.5 123t125.5 49q77 0 116 -56t25 -135l-315 -143 q-21 88 -11 162zM549 1354q46 53 106 106q20 19 44 18.5t44 -20.5q67 -62 105 -106q17 -21 18 -45t-16 -45q-55 -59 -107 -107q-46 -39 -88 0q-33 31 -104 107q-41 47 -2 92z" />
<glyph unicode="&#xec;" horiz-adv-x="665" d="M43 68l4 -43q4 -25 29 -25h524q25 0 29 25l4 43q3 27 -25 30q-81 12 -113 48t-32 118l2 697q0 16 -19 16q-13 0 -32 -16q-164 -128 -324 -187q-20 -9 -20 -33v-30q0 -23 26 -29q55 -9 90 -43.5t35 -89.5l2 -285q0 -81 -36.5 -117.5t-118.5 -48.5q-28 -3 -25 -30z M109.5 1527q3.5 9 13.5 9h246q20 0 20 -20l2 -424q0 -21 -20 -21h-54q-19 0 -28 19l-178 421q-5 7 -1.5 16z" />
<glyph unicode="&#xed;" horiz-adv-x="665" d="M43 68q-3 27 25 30q82 12 118.5 48.5t36.5 117.5l-2 285q0 55 -35 89.5t-90 43.5q-26 6 -26 29v30q0 24 20 33q160 59 324 187q19 16 32 16q19 0 19 -16l-2 -697q0 -82 32 -118t113 -48q28 -3 25 -30l-4 -43q-4 -25 -29 -25h-524q-25 0 -29 25zM242 1092l2 424 q0 20 20 20h246q10 0 13.5 -9t-1.5 -16l-178 -421q-10 -19 -29 -19h-53q-20 0 -20 21z" />
<glyph unicode="&#xee;" horiz-adv-x="665" d="M27 1098l209 418q10 20 30 20h137q21 0 31 -20l207 -418q5 -9 -0.5 -18t-15.5 -9h-68q-20 0 -37 21l-186 235l-182 -235q-17 -21 -37 -21h-72q-10 0 -15.5 9t-0.5 18zM43 68l4 -43q4 -25 29 -25h524q25 0 29 25l4 43q3 27 -25 30q-81 12 -113 48t-32 118l2 697 q0 16 -19 16q-13 0 -32 -16q-164 -128 -324 -187q-20 -9 -20 -33v-30q0 -23 26 -29q55 -9 90 -43.5t35 -89.5l2 -285q0 -81 -36.5 -117.5t-118.5 -48.5q-28 -3 -25 -30z" />
<glyph unicode="&#xef;" horiz-adv-x="665" d="M-31 1354q43 49 107 106q20 19 44 18.5t44 -20.5q61 -57 104 -106q17 -21 18 -45t-16 -45q-62 -66 -106 -107q-46 -39 -88 0q-40 38 -105 107q-41 47 -2 92zM43 68l4 -43q4 -25 29 -25h524q25 0 29 25l4 43q3 27 -25 30q-81 12 -113 48t-32 118l2 697q0 16 -19 16 q-13 0 -32 -16q-164 -128 -324 -187q-20 -9 -20 -33v-30q0 -23 26 -29q55 -9 90 -43.5t35 -89.5l2 -285q0 -81 -36.5 -117.5t-118.5 -48.5q-28 -3 -25 -30zM393 1354q43 49 107 106q20 19 44 18.5t44 -20.5q61 -57 104 -106q17 -21 18 -45t-16 -45q-62 -66 -106 -107 q-46 -39 -88 0q-40 38 -105 107q-41 47 -2 92z" />
<glyph unicode="&#xf0;" horiz-adv-x="1189" d="M61 434q0 153 53.5 273.5t164.5 193t266 72.5q119 0 213.5 -51.5t142.5 -141.5q12 218 -92 408l-250 -121q-13 -6 -24.5 3.5t-6.5 23.5l25 80q8 23 33 36l157 74q-101 119 -221 119q-75 0 -108 -45.5t0 -120.5q8 -19 8 -43v-37q0 -11 -10.5 -16.5t-22.5 -1.5l-205 75 q-32 11 -46 38t-1 61q41 103 130.5 156t217.5 53q224 0 396 -172l266 125q14 6 24.5 -2t6.5 -21l-25 -78q-8 -23 -35 -37l-160 -77q78 -108 121 -244.5t43 -280.5q0 -210 -82 -388t-223 -281t-307 -103q-206 0 -327.5 127.5t-121.5 343.5zM317 350q0 -106 54.5 -172.5 t150.5 -66.5q91 0 167.5 61.5t120.5 166t44 226.5q0 106 -59 176t-158 70q-140 0 -230 -131.5t-90 -329.5z" />
<glyph unicode="&#xf1;" horiz-adv-x="1218" d="M33 68q-3 27 24 30q79 12 108.5 47.5t29.5 118.5l-2 309q0 56 -32.5 91.5t-86.5 44.5q-27 6 -27 28v43q0 25 21 31q168 50 335 143q24 15 46 15q10 0 15 -6.5t3 -16.5l-45 -209q86 91 172 144t190 53q117 0 185.5 -80t68.5 -199v-391q0 -84 27 -119t106 -47q28 -3 25 -30 l-4 -43q-4 -25 -29 -25h-493q-25 0 -29 25l-4 43q-3 27 25 30q77 12 100.5 45.5t23.5 120.5v383q0 54 -29 85.5t-79 31.5q-57 0 -123 -41t-121 -117v-342q0 -87 23 -120.5t100 -45.5q28 -3 25 -30l-4 -43q-4 -25 -29 -25h-483q-25 0 -29 25zM254 1378q0 30 16 39l41 23 q10 6 21 2.5t14 -15.5q12 -47 40 -75.5t67 -28.5q35 -1 66.5 12.5t56.5 33t50.5 39t60.5 33t75 13.5q89 0 147 -74.5t64 -185.5q0 -26 -17 -37l-41 -24q-10 -6 -21.5 -2t-12.5 14q-9 48 -36.5 76t-68.5 28q-30 0 -59 -13.5t-55 -32.5t-54 -37.5t-66 -32t-81 -13.5 q-90 0 -145.5 73t-61.5 185z" />
<glyph unicode="&#xf2;" horiz-adv-x="1122" d="M63 469q0 -214 140.5 -360t353.5 -146q219 0 360.5 140.5t141.5 363.5q0 140 -68 255t-183 179t-251 64q-220 0 -357 -139t-137 -357zM280 640q18 122 121 167q70 27 140.5 9.5t137 -83t109.5 -164.5q65 -144 45.5 -266.5t-122.5 -165.5q-111 -46 -216 20.5t-169 215.5 q-64 145 -46 267zM316 1527q4 9 14 9h245q21 0 21 -20l2 -424q0 -21 -20 -21h-54q-18 0 -28 19l-179 421q-5 7 -1 16z" />
<glyph unicode="&#xf3;" horiz-adv-x="1122" d="M63 469q0 218 137 357t357 139q136 0 251 -64t183 -179t68 -255q0 -223 -141.5 -363.5t-360.5 -140.5q-213 0 -353.5 146t-140.5 360zM280 640q-18 -122 46 -267q64 -149 169 -215.5t216 -20.5q103 43 122.5 165.5t-45.5 266.5q-43 99 -109.5 164.5t-137 83t-140.5 -9.5 q-103 -45 -121 -167zM469 1092l2 424q0 20 21 20h245q10 0 14 -9t-1 -16l-179 -421q-9 -19 -28 -19h-54q-20 0 -20 21z" />
<glyph unicode="&#xf4;" horiz-adv-x="1122" d="M63 469q0 -214 140.5 -360t353.5 -146q219 0 360.5 140.5t141.5 363.5q0 140 -68 255t-183 179t-251 64q-220 0 -357 -139t-137 -357zM252 1098l209 418q10 20 31 20h137q20 0 30 -20l207 -418q5 -9 -0.5 -18t-15.5 -9h-68q-20 0 -37 21l-186 235l-182 -235 q-17 -21 -37 -21h-72q-10 0 -15.5 9t-0.5 18zM280 640q18 122 121 167q70 27 140.5 9.5t137 -83t109.5 -164.5q65 -144 45.5 -266.5t-122.5 -165.5q-111 -46 -216 20.5t-169 215.5q-64 145 -46 267z" />
<glyph unicode="&#xf5;" horiz-adv-x="1122" d="M63 469q0 218 137 357t357 139q136 0 251 -64t183 -179t68 -255q0 -223 -141.5 -363.5t-360.5 -140.5q-213 0 -353.5 146t-140.5 360zM190 1378q0 29 17 39l41 23q10 6 21 2.5t14 -15.5q12 -47 39.5 -75.5t66.5 -28.5q35 -1 66.5 12.5t56.5 33t50.5 39t60.5 33t75 13.5 q89 0 147 -74.5t64 -185.5q0 -26 -16 -37l-41 -24q-10 -6 -22 -2t-13 14q-9 48 -36 76t-68 28q-36 0 -74 -20t-67 -44.5t-76 -44.5t-99 -20q-90 0 -145.5 73t-61.5 185zM280 640q-18 -122 46 -267q64 -149 169 -215.5t216 -20.5q103 43 122.5 165.5t-45.5 266.5 q-43 99 -109.5 164.5t-137 83t-140.5 -9.5q-103 -45 -121 -167z" />
<glyph unicode="&#xf6;" horiz-adv-x="1122" d="M63 469q0 -214 140.5 -360t353.5 -146q219 0 360.5 140.5t141.5 363.5q0 140 -68 255t-183 179t-251 64q-220 0 -357 -139t-137 -357zM186 1354q43 49 107 106q20 19 44 18.5t44 -20.5q61 -57 104 -106q17 -21 18 -45t-16 -45q-62 -66 -106 -107q-46 -39 -88 0 q-40 38 -105 107q-41 47 -2 92zM280 640q18 122 121 167q70 27 140.5 9.5t137 -83t109.5 -164.5q65 -144 45.5 -266.5t-122.5 -165.5q-111 -46 -216 20.5t-169 215.5q-64 145 -46 267zM610 1354q43 49 107 106q20 19 44 18.5t44 -20.5q61 -57 104 -106q17 -21 18 -45 t-16 -45q-62 -66 -106 -107q-46 -39 -88 0q-40 38 -105 107q-41 47 -2 92z" />
<glyph unicode="&#xf7;" d="M123 631v86q0 12 8.5 19t20.5 7h1175q12 0 20.5 -7t8.5 -19v-86q0 -12 -8.5 -19.5t-20.5 -7.5h-1175q-12 0 -20.5 7.5t-8.5 19.5zM538 203q-1 28 21 51q60 67 131 131q23 22 51 21t50 -23q69 -66 131 -131q22 -22 23 -49.5t-21 -50.5q-55 -61 -131 -129 q-23 -22 -51.5 -22t-51.5 22q-88 83 -129 129q-22 23 -23 51zM538 1161q1 28 23 51q41 46 129 129q23 22 51.5 22t51.5 -22q76 -68 131 -129q22 -23 21 -50.5t-23 -49.5q-62 -66 -131 -131q-22 -22 -50 -23t-51 21q-71 64 -131 131q-22 23 -21 51z" />
<glyph unicode="&#xf8;" horiz-adv-x="1122" d="M63 469q0 218 137 356t357 138q154 0 279 -89l32 37q20 23 47 23h107q12 0 17 -12t-3 -21l-104 -106q127 -143 127 -328q0 -224 -138.5 -364t-357.5 -140q-77 0 -151.5 25t-128.5 69l-31 -34q-20 -23 -49 -23h-103q-12 0 -17 12t3 21l100 106q-123 146 -123 330zM278 642 q-20 -124 44 -269q19 -44 24 -51l350 399q-67 71 -145.5 95.5t-149.5 -5.5q-103 -45 -123 -169zM426 213q60 -65 135 -87.5t150 7.5q104 44 126.5 168t-42.5 268l-21 41z" />
<glyph unicode="&#xf9;" horiz-adv-x="1208" d="M23 866q-3 -24 24 -30q69 -12 97 -50t28 -114q0 -74 -7.5 -220t-8.5 -239q-1 -114 64 -179t175 -65q163 0 355 176q14 -78 67.5 -121.5t145.5 -43.5q131 0 219 88q17 17 14 41l-8 49q-1 12 -12 16.5t-21 -0.5q-55 -20 -90 -20q-32 0 -52 18t-20 49l2 688q0 11 -7 18 t-19 7h-336q-25 0 -29 -25l-4 -43q-3 -24 25 -30q69 -12 97 -50.5t28 -115.5v-369q-128 -135 -224 -135q-62 0 -97 34t-32 95q21 456 21 614q0 11 -7.5 18t-19.5 7h-336q-24 0 -28 -25zM338.5 1527q3.5 9 13.5 9h246q20 0 20 -20l3 -424q0 -9 -6 -15t-15 -6h-53 q-19 0 -29 19l-178 421q-5 7 -1.5 16z" />
<glyph unicode="&#xfa;" horiz-adv-x="1208" d="M23 866l4 43q4 25 28 25h336q12 0 19.5 -7t7.5 -18q0 -158 -21 -614q-3 -61 32 -95t97 -34q96 0 224 135v369q0 77 -28 115.5t-97 50.5q-28 6 -25 30l4 43q4 25 29 25h336q12 0 19 -7t7 -18l-2 -688q0 -31 20 -49t52 -18q35 0 90 20q10 5 21 0.5t12 -16.5l8 -49 q3 -24 -14 -41q-88 -88 -219 -88q-92 0 -145.5 43.5t-67.5 121.5q-192 -176 -355 -176q-110 0 -175 65t-64 179q1 93 8.5 239t7.5 220q0 76 -28 114t-97 50q-27 6 -24 30zM512 1092l2 424q0 20 21 20h245q10 0 14 -9t-1 -16l-179 -421q-10 -19 -28 -19h-54q-20 0 -20 21z " />
<glyph unicode="&#xfb;" horiz-adv-x="1208" d="M23 866q-3 -24 24 -30q69 -12 97 -50t28 -114q0 -74 -7.5 -220t-8.5 -239q-1 -114 64 -179t175 -65q163 0 355 176q14 -78 67.5 -121.5t145.5 -43.5q131 0 219 88q17 17 14 41l-8 49q-1 12 -12 16.5t-21 -0.5q-55 -20 -90 -20q-32 0 -52 18t-20 49l2 688q0 11 -7 18 t-19 7h-336q-25 0 -29 -25l-4 -43q-3 -24 25 -30q69 -12 97 -50.5t28 -115.5v-369q-128 -135 -224 -135q-62 0 -97 34t-32 95q21 456 21 614q0 11 -7.5 18t-19.5 7h-336q-24 0 -28 -25zM272 1098l209 418q10 20 31 20h137q21 0 31 -20l207 -418q5 -9 -1 -18t-16 -9h-67 q-20 0 -37 21l-186 235l-183 -235q-17 -21 -37 -21h-71q-10 0 -16 9t-1 18z" />
<glyph unicode="&#xfc;" horiz-adv-x="1208" d="M23 866q-3 -24 24 -30q69 -12 97 -50t28 -114q0 -74 -7.5 -220t-8.5 -239q-1 -114 64 -179t175 -65q163 0 355 176q14 -78 67.5 -121.5t145.5 -43.5q131 0 219 88q17 17 14 41l-8 49q-1 12 -12 16.5t-21 -0.5q-55 -20 -90 -20q-32 0 -52 18t-20 49l2 688q0 11 -7 18 t-19 7h-336q-25 0 -29 -25l-4 -43q-3 -24 25 -30q69 -12 97 -50.5t28 -115.5v-369q-128 -135 -224 -135q-62 0 -97 34t-32 95q21 456 21 614q0 11 -7.5 18t-19.5 7h-336q-24 0 -28 -25zM205 1354q46 53 106 106q20 19 44 18.5t44 -20.5q67 -62 105 -106q17 -21 18 -45 t-16 -45q-55 -59 -107 -107q-46 -39 -88 0q-33 31 -104 107q-41 47 -2 92zM629 1354q46 53 106 106q20 19 44 18.5t44 -20.5q67 -62 105 -106q17 -21 18 -45t-16 -45q-55 -59 -107 -107q-46 -39 -88 0q-33 31 -104 107q-41 47 -2 92z" />
<glyph unicode="&#xfd;" horiz-adv-x="1075" d="M12 868l4 41q4 25 29 25h457q24 0 28 -25l5 -41q3 -23 -21 -32q-43 -16 -59 -58t10 -96l145 -283l129 287q23 55 5.5 94.5t-60.5 55.5q-23 9 -20 32l4 41q4 25 28 25h334q25 0 29 -25l4 -41q3 -23 -21 -32q-64 -26 -101.5 -66.5t-74.5 -112.5l-510 -999q-14 -24 -41 -10 l-69 37q-24 14 -10 41l239 436l-274 495q-42 71 -77 109.5t-91 69.5q-24 12 -21 32zM526 1092l2 424q0 20 21 20h246q10 0 13.5 -9t-1.5 -16l-178 -421q-9 -19 -29 -19h-53q-9 0 -15 6t-6 15z" />
<glyph unicode="&#xfe;" horiz-adv-x="1214" d="M2 -432q-3 28 25 31q81 12 114 47.5t33 117.5v1364q0 55 -36 91t-91 45q-27 6 -27 28v41q0 24 21 33q97 40 156.5 77.5t124.5 96.5q16 16 38 16h35q25 -3 25 -26l-14 -760q46 82 132 138.5t199 56.5q189 0 302.5 -143t113.5 -367q0 -228 -123 -357t-323 -129 q-71 0 -151 25.5t-138 64.5l6 -295q0 -79 40.5 -115.5t125.5 -49.5q27 -3 24 -31l-4 -43q-4 -25 -28 -25h-547q-25 0 -29 25zM415.5 580q-18.5 -111 43.5 -261q55 -128 156.5 -179t197.5 -15q92 35 118.5 145.5t-32.5 257.5q-62 146 -169 198t-206 7q-90 -42 -108.5 -153z " />
<glyph unicode="&#xff;" horiz-adv-x="1075" d="M12 868q-3 -20 21 -32q56 -31 91 -69.5t77 -109.5l274 -495l-239 -436q-14 -27 10 -41l69 -37q27 -14 41 10l510 999q37 72 74.5 112.5t101.5 66.5q24 9 21 32l-4 41q-4 25 -29 25h-334q-24 0 -28 -25l-4 -41q-3 -23 20 -32q43 -16 60.5 -55.5t-5.5 -94.5l-129 -287 l-145 283q-26 54 -10 96t59 58q24 9 21 32l-5 41q-4 25 -28 25h-457q-25 0 -29 -25zM225 1354q43 49 107 106q20 19 44 18.5t44 -20.5q61 -57 104 -106q17 -21 18 -45t-16 -45q-62 -66 -106 -107q-46 -39 -88 0q-40 38 -105 107q-41 47 -2 92zM649 1354q43 49 107 106 q20 19 44 18.5t44 -20.5q61 -57 104 -106q17 -21 18 -45t-16 -45q-62 -66 -106 -107q-46 -39 -88 0q-40 38 -105 107q-41 47 -2 92z" />
<glyph unicode="&#x152;" horiz-adv-x="2203" d="M61 727q0 168 57 315t155.5 251.5t237.5 164.5t298 60q142 0 283 -41h530q112 0 207 1.5t135 3.5l39 1q25 0 29 -25l4 -39q3 -23 -11 -43q-16 -23 -135 -200q-15 -23 -37 -23h-28q-20 0 -35 23q-18 27 -33.5 46.5t-47 50t-63.5 50t-80 34.5t-100 15h-20q-115 0 -115 -100 v-453h158q156 0 180 144q6 27 31 24l53 -4q25 -4 25 -29v-403q0 -25 -25 -29l-53 -4q-25 -3 -31 25q-23 141 -180 141h-137v-448q0 -55 30.5 -84t87.5 -29h13q90 0 164 18.5t127 46.5t105 79.5t87 98t84 121.5q15 21 39 21h49q25 0 25 -25v-43q0 -12 -9 -43 q-31 -89 -116 -379q-6 -22 -35 -22q-99 4 -330 4h-586q-105 -41 -249 -41q-213 0 -391 99.5t-282 276t-104 392.5zM322 846q0 -318 156 -513.5t392 -195.5q211 0 211 150v958q-53 53 -141 86t-174 33q-212 0 -328 -140.5t-116 -377.5z" />
<glyph unicode="&#x153;" horiz-adv-x="1712" d="M61 469q0 218 138 357t358 139q113 0 208.5 -46.5t162.5 -130.5q59 84 146.5 130.5t197.5 46.5q72 0 131 -23t97.5 -62t63.5 -84.5t38 -97.5q4 -16 4 -32v-29q0 -24 -21 -31l-530 -200q33 -105 114 -163t203 -57q68 1 129.5 32.5t106.5 86.5q19 23 43 8l28 -20 q20 -17 9 -39q-22 -53 -57.5 -101t-85.5 -90t-119 -67.5t-148 -26.5q-218 0 -344 176q-65 -85 -161 -132.5t-216 -47.5q-217 0 -356.5 142t-139.5 362zM278.5 639.5q-20.5 -121.5 43.5 -266.5q64 -149 169.5 -216.5t215.5 -21.5q104 43 125 166t-44 268q-64 149 -174 216 t-211 22q-104 -46 -124.5 -167.5zM1031 669.5q-10 -73.5 11 -161.5l316 143q14 79 -25 134t-116 55q-76 0 -126 -48.5t-60 -122z" />
<glyph unicode="&#x178;" horiz-adv-x="1361" d="M12 1399q-3 -25 25 -31q109 -22 199 -166l325 -493v-435q0 -79 -40.5 -115.5t-125.5 -49.5q-27 -3 -24 -31l4 -53q4 -25 28 -25h592q25 0 29 25l4 53q3 28 -24 31q-85 13 -125.5 49.5t-40.5 115.5l-2 478l256 450q81 143 233 166q28 3 25 31l-4 53q-4 25 -29 25h-443 q-24 0 -28 -25l-4 -53q-3 -28 24 -31q76 -12 96 -51.5t-12 -93.5l-200 -371l-215 371q-37 51 -19 92t94 53q28 3 25 31l-4 53q-4 25 -29 25h-557q-25 0 -29 -25zM358 1806q67 72 105 103q45 38 86 0q21 -19 102 -105q19 -20 20 -45t-18 -45q-69 -74 -104 -104q-46 -37 -86 0 q-44 35 -103 104q-39 46 -2 92zM817 1806q52 59 105 103q45 38 86 0q43 -38 102 -105q19 -20 20 -45t-18 -45q-48 -56 -104 -104q-46 -37 -86 0q-51 45 -103 104q-41 47 -2 92z" />
<glyph unicode="&#x2c6;" horiz-adv-x="1024" d="M205 1098l209 418q10 20 30 20h138q20 0 30 -20l207 -418q5 -9 -0.5 -18t-15.5 -9h-68q-20 0 -37 21l-186 235l-182 -235q-17 -21 -37 -21h-72q-10 0 -15.5 9t-0.5 18z" />
<glyph unicode="&#x2dc;" horiz-adv-x="997" d="M139 1378q0 29 17 39l41 23q10 6 20.5 2.5t13.5 -15.5q12 -47 40 -75.5t67 -28.5q35 -1 66.5 12.5t56.5 33t50.5 39t60.5 33t75 13.5q89 0 147 -74.5t64 -185.5q0 -26 -16 -37l-41 -24q-10 -6 -22 -2t-13 14q-9 48 -36 76t-68 28q-36 0 -74 -20t-67 -44.5t-76 -44.5 t-99 -20q-90 0 -145.5 73t-61.5 185z" />
<glyph unicode="&#x2000;" horiz-adv-x="994" />
<glyph unicode="&#x2001;" horiz-adv-x="1989" />
<glyph unicode="&#x2002;" horiz-adv-x="994" />
<glyph unicode="&#x2003;" horiz-adv-x="1989" />
<glyph unicode="&#x2004;" horiz-adv-x="663" />
<glyph unicode="&#x2005;" horiz-adv-x="497" />
<glyph unicode="&#x2006;" horiz-adv-x="331" />
<glyph unicode="&#x2007;" horiz-adv-x="331" />
<glyph unicode="&#x2008;" horiz-adv-x="248" />
<glyph unicode="&#x2009;" horiz-adv-x="397" />
<glyph unicode="&#x200a;" horiz-adv-x="110" />
<glyph unicode="&#x2010;" horiz-adv-x="778" d="M106 385l58 152q13 38 61 38h412q21 0 31.5 -13.5t3.5 -33.5l-58 -151q-14 -39 -61 -39h-412q-21 0 -31.5 13.5t-3.5 33.5z" />
<glyph unicode="&#x2011;" horiz-adv-x="778" d="M106 385l58 152q13 38 61 38h412q21 0 31.5 -13.5t3.5 -33.5l-58 -151q-14 -39 -61 -39h-412q-21 0 -31.5 13.5t-3.5 33.5z" />
<glyph unicode="&#x2012;" horiz-adv-x="778" d="M106 385l58 152q13 38 61 38h412q21 0 31.5 -13.5t3.5 -33.5l-58 -151q-14 -39 -61 -39h-412q-21 0 -31.5 13.5t-3.5 33.5z" />
<glyph unicode="&#x2013;" horiz-adv-x="1536" d="M106 471l39 113q14 39 60 39h1192q21 0 30.5 -14t2.5 -34l-39 -112q-14 -39 -60 -39h-1192q-21 0 -30.5 13.5t-2.5 33.5z" />
<glyph unicode="&#x2014;" horiz-adv-x="2181" d="M76 471l39 113q14 39 59 39h1899q20 0 29.5 -14t2.5 -34l-39 -112q-14 -39 -59 -39h-1898q-21 0 -30.5 13.5t-2.5 33.5z" />
<glyph unicode="&#x2018;" horiz-adv-x="524" d="M70 989q76 300 303 508q11 10 24 9t23 -11l37 -37q23 -24 0 -47q-52 -52 -77.5 -81.5t-47 -76t-21.5 -96.5q0 -35 15 -68.5t30.5 -53.5t44.5 -52q44 -51 7 -96q-51 -65 -103 -111q-46 -43 -96 0q-90 77 -125 121q-27 36 -14 92z" />
<glyph unicode="&#x2019;" horiz-adv-x="524" d="M68 803q-24 23 0 47q52 52 77.5 82t46.5 76t21 96q0 35 -15 68.5t-30.5 53.5t-44.5 52q-44 50 -6 96q54 68 102 111q46 43 96 0q90 -77 125 -121q28 -37 15 -92q-76 -300 -303 -508q-11 -10 -24.5 -9t-23.5 11z" />
<glyph unicode="&#x201a;" horiz-adv-x="524" d="M57 -193q52 52 77.5 81.5t47 76t21.5 96.5q0 35 -14.5 68.5t-30.5 54.5t-45 52q-44 51 -7 96q49 61 103 110q46 43 96 0q92 -79 125 -120q27 -36 14 -93q-76 -300 -303 -508q-11 -10 -24 -8.5t-23 11.5l-37 36q-23 24 0 47z" />
<glyph unicode="&#x201c;" horiz-adv-x="1017" d="M98 989q76 300 303 508q11 10 24.5 9t23.5 -11l36 -37q23 -24 0 -47q-52 -52 -77.5 -82t-46.5 -76t-21 -96q0 -35 15 -68.5t30.5 -53.5t44.5 -52q44 -50 6 -96q-54 -68 -102 -111q-46 -43 -96 0q-90 77 -125 121q-28 37 -15 92zM553 989q76 300 303 508q11 10 24 9 t23 -11l37 -37q24 -24 0 -47q-52 -52 -77.5 -82t-46.5 -76t-21 -96q0 -35 15 -68.5t30.5 -53.5t44.5 -52q44 -50 6 -96q-51 -65 -103 -111q-46 -43 -96 0q-90 77 -125 121q-27 36 -14 92z" />
<glyph unicode="&#x201d;" horiz-adv-x="1017" d="M88 803q-24 23 0 47q52 52 77.5 82t46.5 76t21 96q0 35 -15 68.5t-30.5 53.5t-44.5 52q-44 50 -6 96q51 65 103 111q46 43 96 0q90 -77 125 -121q27 -36 14 -92q-76 -300 -303 -508q-11 -10 -24 -9t-23 11zM543 803q-23 23 0 47q52 52 77.5 82t46.5 76t21 96 q0 35 -15 68.5t-30.5 53.5t-44.5 52q-44 50 -6 96q54 68 102 111q22 20 48 20t49 -20q87 -74 124 -121q28 -37 15 -92q-76 -300 -303 -508q-11 -10 -24 -9t-23 11z" />
<glyph unicode="&#x201e;" horiz-adv-x="1017" d="M78 -193q52 52 77.5 82t46.5 76t21 96q0 35 -14.5 68.5t-30.5 54.5t-45 52q-44 50 -6 96q51 64 102 110q22 20 48 20t49 -20q92 -79 125 -120q27 -36 14 -93q-76 -300 -303 -508q-11 -10 -24 -8.5t-23 11.5l-37 36q-24 24 0 47zM532 -193q52 52 77.5 81.5t47 76 t21.5 96.5q0 35 -14.5 68.5t-30.5 54.5t-45 52q-44 50 -6 96q51 64 102 110q46 43 96 0q92 -79 125 -120q28 -37 15 -93q-76 -299 -304 -508q-11 -10 -24 -8.5t-23 11.5l-37 36q-24 24 0 47z" />
<glyph unicode="&#x2022;" horiz-adv-x="892" d="M106 623q0 139 99.5 236t240.5 97t240.5 -97t99.5 -236t-99.5 -236.5t-240.5 -97.5t-240.5 97.5t-99.5 236.5z" />
<glyph unicode="&#x2026;" horiz-adv-x="2105" d="M124 173q0 26 21 48q47 53 123 125q23 20 50 19t47 -21q57 -54 124 -125q21 -21 22 -46.5t-19 -49.5q-45 -48 -125 -123q-22 -20 -49 -20t-50 20l-123 123q-21 24 -21 50zM860 193.5q0 26.5 21 48.5q47 53 123 125q23 20 49.5 19t46.5 -21q66 -62 125 -125q20 -20 21 -47 t-19 -50q-45 -48 -125 -123q-22 -20 -48.5 -20t-49.5 20q-10 10 -37 36.5t-49 48.5t-37 38q-21 24 -21 50.5zM1595 173q0 26 21 48q47 53 123 125q23 20 49.5 19t46.5 -21q66 -62 125 -125q20 -20 21 -46.5t-19 -49.5q-45 -48 -125 -123q-22 -20 -48.5 -20t-49.5 20 l-123 123q-21 24 -21 50z" />
<glyph unicode="&#x202f;" horiz-adv-x="397" />
<glyph unicode="&#x2039;" horiz-adv-x="819" d="M113 537v98q0 19 16 31l545 409q9 8 21 4t12 -16v-125q0 -26 -23 -45l-410 -307l410 -305q23 -19 23 -45v-127q0 -12 -12 -16.5t-21 3.5l-545 410q-16 12 -16 31z" />
<glyph unicode="&#x203a;" horiz-adv-x="819" d="M113 109v127q0 27 22 45l410 305l-410 307q-22 18 -22 45v125q0 12 11.5 16t20.5 -4l545 -409q17 -13 17 -31v-98q0 -18 -17 -31l-545 -410q-9 -8 -20.5 -3.5t-11.5 16.5z" />
<glyph unicode="&#x205f;" horiz-adv-x="497" />
<glyph unicode="&#x20ac;" horiz-adv-x="1351" d="M20 543v86q0 12 8.5 19t20.5 7h105q-4 58 -4 88v52h-101q-12 0 -20.5 7t-8.5 19v86q0 12 8.5 19.5t20.5 7.5h115q19 123 63 226.5t113 184.5t170 127t225 46q86 0 162.5 -16t124 -32t63.5 -16q23 0 44 11.5t40 11.5h43q23 0 23 -23l4 -469q0 -12 -8.5 -20.5t-20.5 -8.5 h-61q-30 0 -39 27q-20 53 -34.5 89t-36.5 82.5t-42.5 77t-50 63t-60 51.5t-71 31t-86.5 12q-110 0 -190.5 -62t-122.5 -162.5t-51 -230.5h389q12 0 20 -7.5t8 -19.5v-86q0 -12 -8 -19t-20 -7h-392q2 -58 17 -140h375q12 0 20 -7t8 -19v-86q0 -12 -8 -19.5t-20 -7.5h-342 q52 -164 151 -260t240 -96q72 0 130.5 21.5t99 54.5t75 86.5t56.5 104t46 120.5q4 12 16.5 16.5t22.5 -0.5l66 -31q20 -10 14 -34q-24 -93 -54.5 -168.5t-78.5 -146.5t-108.5 -119t-145 -76.5t-186.5 -28.5q-218 0 -372.5 155.5t-209.5 401.5h-125q-12 0 -20.5 7.5 t-8.5 19.5z" />
<glyph unicode="&#x2122;" horiz-adv-x="2232" d="M43 1233l76 252q7 18 24 18h35q17 0 31 -14q12 -12 43 -12h1098q17 0 20 -17l4 -39q3 -18 -18 -22q-53 -7 -69 -32t-3 -58l201 -453l192 447q14 33 -2 61t-69 35q-20 3 -17 22l2 39q3 17 21 17h454q8 0 13.5 -5t5.5 -12l4 -39q0 -19 -18 -22q-58 -8 -86.5 -34t-28.5 -81 v-491q0 -56 28 -80.5t87 -32.5q18 -3 18 -23l-4 -39q0 -16 -19 -16h-407q-18 0 -21 16l-2 39q-3 20 17 23q59 8 86.5 32.5t27.5 80.5v442l-274 -643q-9 -17 -25 -17h-51q-15 0 -24 17l-279 633v-432q0 -56 28 -80.5t89 -32.5q19 -3 16 -23l-4 -39q-3 -16 -20 -16h-330 q-19 0 -19 16l-4 39q-3 20 19 23q59 8 87 32.5t28 80.5v458q-24 64 -83.5 97.5t-183.5 33.5h-102v-585q0 -55 30.5 -81t92.5 -36q21 -3 18 -23l-4 -39q-3 -16 -18 -16h-445q-18 0 -18 16l-4 41q-4 18 18 21q62 10 95.5 36.5t33.5 80.5v585h-10q-67 -4 -118 -18t-84 -37 t-53 -45.5t-38 -52.5q-10 -17 -29 -17h-45q-7 0 -11.5 6.5t-2.5 14.5z" />
<glyph unicode="&#x25fc;" horiz-adv-x="931" d="M0 0v932h932v-932h-932z" />
</font>
</defs>
</svg>
